  0
SECTION
  2
HEADER
  9
$ACADVER
  1
AC1024
  9
$ACADMAINTVER
 70
     6
  9
$DWGCODEPAGE
  3
ANSI_1252
  9
$INSBASE
 10
0.0
 20
0.0
 30
0.0
  9
$EXTMIN
 10
1.000000000000000E+20
 20
1.000000000000000E+20
 30
1.000000000000000E+20
  9
$EXTMAX
 10
-1.000000000000000E+20
 20
-1.000000000000000E+20
 30
-1.000000000000000E+20
  9
$LIMMIN
 10
0.0
 20
0.0
  9
$LIMMAX
 10
12.0
 20
9.0
  9
$ORTHOMODE
 70
     0
  9
$REGENMODE
 70
     1
  9
$FILLMODE
 70
     1
  9
$QTEXTMODE
 70
     0
  9
$MIRRTEXT
 70
     1
  9
$LTSCALE
 40
1.0
  9
$ATTMODE
 70
     1
  9
$TEXTSIZE
 40
0.2
  9
$TRACEWID
 40
0.05
  9
$TEXTSTYLE
  7
Standard
  9
$CLAYER
  8
0
  9
$CELTYPE
  6
ByLayer
  9
$CECOLOR
 62
   256
  9
$CELTSCALE
 40
1.0
  9
$DISPSILH
 70
     0
  9
$DIMSCALE
 40
1.0
  9
$DIMASZ
 40
0.18
  9
$DIMEXO
 40
0.0625
  9
$DIMDLI
 40
0.38
  9
$DIMRND
 40
0.0
  9
$DIMDLE
 40
0.0
  9
$DIMEXE
 40
0.18
  9
$DIMTP
 40
0.0
  9
$DIMTM
 40
0.0
  9
$DIMTXT
 40
0.18
  9
$DIMCEN
 40
0.09
  9
$DIMTSZ
 40
0.0
  9
$DIMTOL
 70
     0
  9
$DIMLIM
 70
     0
  9
$DIMTIH
 70
     1
  9
$DIMTOH
 70
     1
  9
$DIMSE1
 70
     0
  9
$DIMSE2
 70
     0
  9
$DIMTAD
 70
     0
  9
$DIMZIN
 70
     0
  9
$DIMBLK
  1

  9
$DIMASO
 70
     1
  9
$DIMSHO
 70
     1
  9
$DIMPOST
  1

  9
$DIMAPOST
  1

  9
$DIMALT
 70
     0
  9
$DIMALTD
 70
     2
  9
$DIMALTF
 40
25.4
  9
$DIMLFAC
 40
1.0
  9
$DIMTOFL
 70
     0
  9
$DIMTVP
 40
0.0
  9
$DIMTIX
 70
     0
  9
$DIMSOXD
 70
     0
  9
$DIMSAH
 70
     0
  9
$DIMBLK1
  1

  9
$DIMBLK2
  1

  9
$DIMSTYLE
  2
Standard
  9
$DIMCLRD
 70
     0
  9
$DIMCLRE
 70
     0
  9
$DIMCLRT
 70
     0
  9
$DIMTFAC
 40
1.0
  9
$DIMGAP
 40
0.09
  9
$DIMJUST
 70
     0
  9
$DIMSD1
 70
     0
  9
$DIMSD2
 70
     0
  9
$DIMTOLJ
 70
     1
  9
$DIMTZIN
 70
     0
  9
$DIMALTZ
 70
     0
  9
$DIMALTTZ
 70
     0
  9
$DIMUPT
 70
     0
  9
$DIMDEC
 70
     4
  9
$DIMTDEC
 70
     4
  9
$DIMALTU
 70
     2
  9
$DIMALTTD
 70
     2
  9
$DIMTXSTY
  7
Standard
  9
$DIMAUNIT
 70
     0
  9
$DIMADEC
 70
     0
  9
$DIMALTRND
 40
0.0
  9
$DIMAZIN
 70
     0
  9
$DIMDSEP
 70
    46
  9
$DIMATFIT
 70
     3
  9
$DIMFRAC
 70
     0
  9
$DIMLDRBLK
  1

  9
$DIMLUNIT
 70
     2
  9
$DIMLWD
 70
    -2
  9
$DIMLWE
 70
    -2
  9
$DIMTMOVE
 70
     0
  9
$DIMFXL
 40
1.0
  9
$DIMFXLON
 70
     0
  9
$DIMJOGANG
 40
0.7853981633974483
  9
$DIMTFILL
 70
     0
  9
$DIMTFILLCLR
 70
     0
  9
$DIMARCSYM
 70
     0
  9
$DIMLTYPE
  6

  9
$DIMLTEX1
  6

  9
$DIMLTEX2
  6

  9
$DIMTXTDIRECTION
 70
     0
  9
$LUNITS
 70
     2
  9
$LUPREC
 70
     4
  9
$SKETCHINC
 40
0.1
  9
$FILLETRAD
 40
0.5
  9
$AUNITS
 70
     0
  9
$AUPREC
 70
     0
  9
$MENU
  1
.
  9
$ELEVATION
 40
0.0
  9
$PELEVATION
 40
0.0
  9
$THICKNESS
 40
0.0
  9
$LIMCHECK
 70
     0
  9
$CHAMFERA
 40
0.5
  9
$CHAMFERB
 40
0.5
  9
$CHAMFERC
 40
1.0
  9
$CHAMFERD
 40
0.0
  9
$SKPOLY
 70
     0
  9
$TDCREATE
 40
2459122.098746481
  9
$TDUCREATE
 40
2459121.807079815
  9
$TDUPDATE
 40
2459122.098746516
  9
$TDUUPDATE
 40
2459121.80707985
  9
$TDINDWG
 40
0.0000000116
  9
$TDUSRTIMER
 40
0.0000000116
  9
$USRTIMER
 70
     1
  9
$ANGBASE
 50
0.0
  9
$ANGDIR
 70
     0
  9
$PDMODE
 70
     0
  9
$PDSIZE
 40
0.0
  9
$PLINEWID
 40
0.0
  9
$SPLFRAME
 70
     0
  9
$SPLINETYPE
 70
     6
  9
$SPLINESEGS
 70
     8
  9
$HANDSEED
  5
8E
  9
$SURFTAB1
 70
     6
  9
$SURFTAB2
 70
     6
  9
$SURFTYPE
 70
     6
  9
$SURFU
 70
     6
  9
$SURFV
 70
     6
  9
$UCSBASE
  2

  9
$UCSNAME
  2

  9
$UCSORG
 10
0.0
 20
0.0
 30
0.0
  9
$UCSXDIR
 10
1.0
 20
0.0
 30
0.0
  9
$UCSYDIR
 10
0.0
 20
1.0
 30
0.0
  9
$UCSORTHOREF
  2

  9
$UCSORTHOVIEW
 70
     0
  9
$UCSORGTOP
 10
0.0
 20
0.0
 30
0.0
  9
$UCSORGBOTTOM
 10
0.0
 20
0.0
 30
0.0
  9
$UCSORGLEFT
 10
0.0
 20
0.0
 30
0.0
  9
$UCSORGRIGHT
 10
0.0
 20
0.0
 30
0.0
  9
$UCSORGFRONT
 10
0.0
 20
0.0
 30
0.0
  9
$UCSORGBACK
 10
0.0
 20
0.0
 30
0.0
  9
$PUCSBASE
  2

  9
$PUCSNAME
  2

  9
$PUCSORG
 10
0.0
 20
0.0
 30
0.0
  9
$PUCSXDIR
 10
1.0
 20
0.0
 30
0.0
  9
$PUCSYDIR
 10
0.0
 20
1.0
 30
0.0
  9
$PUCSORTHOREF
  2

  9
$PUCSORTHOVIEW
 70
     0
  9
$PUCSORGTOP
 10
0.0
 20
0.0
 30
0.0
  9
$PUCSORGBOTTOM
 10
0.0
 20
0.0
 30
0.0
  9
$PUCSORGLEFT
 10
0.0
 20
0.0
 30
0.0
  9
$PUCSORGRIGHT
 10
0.0
 20
0.0
 30
0.0
  9
$PUCSORGFRONT
 10
0.0
 20
0.0
 30
0.0
  9
$PUCSORGBACK
 10
0.0
 20
0.0
 30
0.0
  9
$USERI1
 70
     0
  9
$USERI2
 70
     0
  9
$USERI3
 70
     0
  9
$USERI4
 70
     0
  9
$USERI5
 70
     0
  9
$USERR1
 40
0.0
  9
$USERR2
 40
0.0
  9
$USERR3
 40
0.0
  9
$USERR4
 40
0.0
  9
$USERR5
 40
0.0
  9
$WORLDVIEW
 70
     1
  9
$SHADEDGE
 70
     3
  9
$SHADEDIF
 70
    70
  9
$TILEMODE
 70
     1
  9
$MAXACTVP
 70
    64
  9
$PINSBASE
 10
0.0
 20
0.0
 30
0.0
  9
$PLIMCHECK
 70
     0
  9
$PEXTMIN
 10
1.000000000000000E+20
 20
1.000000000000000E+20
 30
1.000000000000000E+20
  9
$PEXTMAX
 10
-1.000000000000000E+20
 20
-1.000000000000000E+20
 30
-1.000000000000000E+20
  9
$PLIMMIN
 10
0.0
 20
0.0
  9
$PLIMMAX
 10
12.0
 20
9.0
  9
$UNITMODE
 70
     0
  9
$VISRETAIN
 70
     1
  9
$PLINEGEN
 70
     0
  9
$PSLTSCALE
 70
     1
  9
$TREEDEPTH
 70
  3020
  9
$CMLSTYLE
  2
Standard
  9
$CMLJUST
 70
     0
  9
$CMLSCALE
 40
1.0
  9
$PROXYGRAPHICS
 70
     1
  9
$MEASUREMENT
 70
     0
  9
$CELWEIGHT
370
    -1
  9
$ENDCAPS
280
     0
  9
$JOINSTYLE
280
     0
  9
$LWDISPLAY
290
     1
  9
$INSUNITS
 70
     5
  9
$HYPERLINKBASE
  1

  9
$STYLESHEET
  1

  9
$XEDIT
290
     1
  9
$CEPSNTYPE
380
     0
  9
$PSTYLEMODE
290
     1
  9
$FINGERPRINTGUID
  2
{189B6559-F851-47BB-80A7-5CAF4678B5EB}
  9
$VERSIONGUID
  2
{FAEB1C32-E019-11D5-929B-00C0DF256EC4}
  9
$EXTNAMES
290
     1
  9
$PSVPSCALE
 40
0.0
  9
$OLESTARTUP
290
     0
  9
$SORTENTS
280
   127
  9
$INDEXCTL
280
     0
  9
$HIDETEXT
280
     1
  9
$XCLIPFRAME
280
     2
  9
$HALOGAP
280
     0
  9
$OBSCOLOR
 70
   257
  9
$OBSLTYPE
280
     0
  9
$INTERSECTIONDISPLAY
280
     0
  9
$INTERSECTIONCOLOR
 70
   257
  9
$DIMASSOC
280
     2
  9
$PROJECTNAME
  1

  9
$CAMERADISPLAY
290
     0
  9
$LENSLENGTH
 40
50.0
  9
$CAMERAHEIGHT
 40
0.0
  9
$STEPSPERSEC
 40
2.0
  9
$STEPSIZE
 40
6.0
  9
$3DDWFPREC
 40
2.0
  9
$PSOLWIDTH
 40
0.25
  9
$PSOLHEIGHT
 40
4.0
  9
$LOFTANG1
 40
1.570796326794897
  9
$LOFTANG2
 40
1.570796326794897
  9
$LOFTMAG1
 40
0.0
  9
$LOFTMAG2
 40
0.0
  9
$LOFTPARAM
 70
     7
  9
$LOFTNORMALS
280
     1
  9
$LATITUDE
 40
37.795
  9
$LONGITUDE
 40
-122.394
  9
$NORTHDIRECTION
 40
0.0
  9
$TIMEZONE
 70
 -8000
  9
$LIGHTGLYPHDISPLAY
280
     1
  9
$TILEMODELIGHTSYNCH
280
     1
  9
$CMATERIAL
347
3C
  9
$SOLIDHIST
280
     1
  9
$SHOWHIST
280
     1
  9
$DWFFRAME
280
     2
  9
$DGNFRAME
280
     2
  9
$REALWORLDSCALE
290
     1
  9
$INTERFERECOLOR
 62
   256
  9
$CSHADOW
280
     0
  9
$SHADOWPLANELOCATION
 40
0.0
  0
ENDSEC
  0
SECTION
  2
CLASSES
  0
CLASS
  1
ACDBDICTIONARYWDFLT
  2
AcDbDictionaryWithDefault
  3
ObjectDBX Classes
 90
        0
 91
        4
280
     0
281
     0
  0
CLASS
  1
VISUALSTYLE
  2
AcDbVisualStyle
  3
ObjectDBX Classes
 90
     4095
 91
        4
280
     0
281
     0
  0
CLASS
  1
MATERIAL
  2
AcDbMaterial
  3
ObjectDBX Classes
 90
     1153
 91
        4
280
     0
281
     0
  0
CLASS
  1
SUN
  2
AcDbSun
  3
SCENEOE
 90
     1024
 91
        4
280
     0
281
     0
  0
ENDSEC
  0
SECTION
  2
TABLES
  0
TABLE
  2
VPORT
  5
8
330
0
100
AcDbSymbolTable
 70
     1
  0
VPORT
  5
29
330
8
100
AcDbSymbolTableRecord
100
AcDbViewportTableRecord
  2
*Active
 70
     0
 10
0.0
 20
0.0
 11
1.0
 21
1.0
 12
0.0
 22
0.0
 13
0.0
 23
0.0
 14
0.5
 24
0.5
 15
0.5
 25
0.5
 16
0.0
 26
0.0
 36
1.0
 17
7.999999997999753
 27
-17.14804869255798
 37
0.0
 40
34.29609738511596
 41
0.4665253838165065
 42
50.0
 43
0.0
 44
0.0
 50
0.0
 51
0.0
 71
     0
 72
   100
 73
     1
 74
     3
 75
     0
 76
     0
 77
     0
 78
     0
281
     0
 65
     1
110
0.0
120
0.0
130
0.0
111
1.0
121
0.0
131
0.0
112
0.0
122
1.0
132
0.0
 79
     0
146
0.0
 60
     3
 61
     5
292
     1
282
     1
141
0.0
142
0.0
 63
   250
361
3F
  0
ENDTAB
  0
TABLE
  2
LTYPE
  5
5
330
0
100
AcDbSymbolTable
 70
     1
  0
LTYPE
  5
14
330
5
100
AcDbSymbolTableRecord
100
AcDbLinetypeTableRecord
  2
ByBlock
 70
     0
  3

 72
    65
 73
     0
 40
0.0
  0
LTYPE
  5
15
330
5
100
AcDbSymbolTableRecord
100
AcDbLinetypeTableRecord
  2
ByLayer
 70
     0
  3

 72
    65
 73
     0
 40
0.0
  0
LTYPE
  5
16
330
5
100
AcDbSymbolTableRecord
100
AcDbLinetypeTableRecord
  2
Continuous
 70
     0
  3
Solid line
 72
    65
 73
     0
 40
0.0
  0
ENDTAB
  0
TABLE
  2
LAYER
  5
2
330
0
100
AcDbSymbolTable
 70
     2
  0
LAYER
  5
10
330
2
100
AcDbSymbolTableRecord
100
AcDbLayerTableRecord
  2
0
 70
     0
 62
     7
  6
Continuous
370
    -3
390
F
347
3E
  0
LAYER
  5
40
330
2
100
AcDbSymbolTableRecord
100
AcDbLayerTableRecord
  2
Layer 1
 70
     0
 62
     7
  6
Continuous
370
    -3
390
F
347
3E
  0
ENDTAB
  0
TABLE
  2
STYLE
  5
3
330
0
100
AcDbSymbolTable
 70
     1
  0
STYLE
  5
11
330
3
100
AcDbSymbolTableRecord
100
AcDbTextStyleTableRecord
  2
Standard
 70
     0
 40
0.0
 41
1.0
 50
0.0
 71
     0
 42
0.2
  3
txt
  4

  0
ENDTAB
  0
TABLE
  2
VIEW
  5
6
330
0
100
AcDbSymbolTable
 70
     0
  0
ENDTAB
  0
TABLE
  2
UCS
  5
7
330
0
100
AcDbSymbolTable
 70
     0
  0
ENDTAB
  0
TABLE
  2
APPID
  5
9
330
0
100
AcDbSymbolTable
 70
     1
  0
APPID
  5
12
330
9
100
AcDbSymbolTableRecord
100
AcDbRegAppTableRecord
  2
ACAD
 70
     0
  0
ENDTAB
  0
TABLE
  2
DIMSTYLE
  5
A
330
0
100
AcDbSymbolTable
 70
     1
100
AcDbDimStyleTable
  0
DIMSTYLE
105
27
330
A
100
AcDbSymbolTableRecord
100
AcDbDimStyleTableRecord
  2
Standard
 70
     0
178
     0
340
11
  0
ENDTAB
  0
TABLE
  2
BLOCK_RECORD
  5
1
330
0
100
AcDbSymbolTable
 70
     1
  0
BLOCK_RECORD
  5
1F
330
1
100
AcDbSymbolTableRecord
100
AcDbBlockTableRecord
  2
*Model_Space
340
22
 70
     0
280
     1
281
     0
  0
BLOCK_RECORD
  5
1B
330
1
100
AcDbSymbolTableRecord
100
AcDbBlockTableRecord
  2
*Paper_Space
340
1E
 70
     0
280
     1
281
     0
  0
BLOCK_RECORD
  5
23
330
1
100
AcDbSymbolTableRecord
100
AcDbBlockTableRecord
  2
*Paper_Space0
340
26
 70
     0
280
     1
281
     0
  0
ENDTAB
  0
ENDSEC
  0
SECTION
  2
BLOCKS
  0
BLOCK
  5
20
330
1F
100
AcDbEntity
  8
0
100
AcDbBlockBegin
  2
*Model_Space
 70
     0
 10
0.0
 20
0.0
 30
0.0
  3
*Model_Space
  1

  0
ENDBLK
  5
21
330
1F
100
AcDbEntity
  8
0
100
AcDbBlockEnd
  0
BLOCK
  5
1C
330
1B
100
AcDbEntity
 67
     1
  8
0
100
AcDbBlockBegin
  2
*Paper_Space
 70
     0
 10
0.0
 20
0.0
 30
0.0
  3
*Paper_Space
  1

  0
ENDBLK
  5
1D
330
1B
100
AcDbEntity
 67
     1
  8
0
100
AcDbBlockEnd
  0
BLOCK
  5
24
330
23
100
AcDbEntity
  8
0
100
AcDbBlockBegin
  2
*Paper_Space0
 70
     0
 10
0.0
 20
0.0
 30
0.0
  3
*Paper_Space0
  1

  0
ENDBLK
  5
25
330
23
100
AcDbEntity
  8
0
100
AcDbBlockEnd
  0
ENDSEC
  0
SECTION
  2
ENTITIES
  0
SPLINE
  5
41
330
1F
100
AcDbEntity
  8
Layer 1
 62
   250
420
  2301728
370
     9
100
AcDbSpline
210
0.0
220
0.0
230
1.0
 70
    11
 71
     3
 72
    29
 73
    25
 74
     0
 42
0.0000000001
 43
0.0000000001
 12
1.0
 22
0.0
 32
0.0
 13
1.0
 23
0.0
 33
0.0
 40
0.0
 40
0.0
 40
0.0
 40
0.0
 40
1.0
 40
1.0
 40
1.0
 40
2.0
 40
2.0
 40
2.0
 40
3.0
 40
3.0
 40
3.0
 40
4.0
 40
4.0
 40
4.0
 40
5.0
 40
5.0
 40
5.0
 40
6.0
 40
6.0
 40
6.0
 40
7.0
 40
7.0
 40
7.0
 40
8.0
 40
8.0
 40
8.0
 40
8.0
 10
15.20502577289122
 20
-8.627735434117373
 30
0.0
 10
15.20502577289122
 20
-8.627735434117373
 30
0.0
 10
0.8041168842862232
 20
-8.627735434117373
 30
0.0
 10
0.8041168842862232
 20
-8.627735434117373
 30
0.0
 10
0.6386824430304424
 20
-8.627735434117373
 30
0.0
 10
0.5045713304637404
 20
-8.49362432155067
 30
0.0
 10
0.5045713304637404
 20
-8.32818988029489
 30
0.0
 10
0.5045713304637404
 20
-8.32818988029489
 30
0.0
 10
0.5045713304637404
 20
-0.9272809899398774
 30
0.0
 10
0.5045713304637404
 20
-0.9272809899398774
 30
0.0
 10
0.5045713304637404
 20
-0.7618465486840966
 30
0.0
 10
0.6386824430304424
 20
-0.6277354361173946
 30
0.0
 10
0.8041168842862232
 20
-0.6277354361173946
 30
0.0
 10
0.8041168842862232
 20
-0.6277354361173946
 30
0.0
 10
15.20502577289122
 20
-0.6277354361173946
 30
0.0
 10
15.20502577289122
 20
-0.6277354361173946
 30
0.0
 10
15.37046021414696
 20
-0.6277354361173946
 30
0.0
 10
15.5045713267137
 20
-0.7618465486840966
 30
0.0
 10
15.5045713267137
 20
-0.9272809899398774
 30
0.0
 10
15.5045713267137
 20
-0.9272809899398774
 30
0.0
 10
15.5045713267137
 20
-8.32818988029489
 30
0.0
 10
15.5045713267137
 20
-8.32818988029489
 30
0.0
 10
15.5045713267137
 20
-8.49362432155067
 30
0.0
 10
15.37046021414696
 20
-8.627735434117373
 30
0.0
 10
15.20502577289122
 20
-8.627735434117373
 30
0.0
  0
SPLINE
  5
42
330
1F
100
AcDbEntity
  8
Layer 1
 62
   250
420
  2301728
370
     9
100
AcDbSpline
210
0.0
220
0.0
230
1.0
 70
    11
 71
     3
 72
    17
 73
    13
 74
     0
 42
0.0000000001
 43
0.0000000001
 12
1.0
 22
0.0
 32
0.0
 13
1.0
 23
0.0
 33
0.0
 40
0.0
 40
0.0
 40
0.0
 40
0.0
 40
1.0
 40
1.0
 40
1.0
 40
2.0
 40
2.0
 40
2.0
 40
3.0
 40
3.0
 40
3.0
 40
4.0
 40
4.0
 40
4.0
 40
4.0
 10
6.075084912709666
 20
-2.009735435771798
 30
0.0
 10
5.985338640889577
 20
-2.009735435771798
 30
0.0
 10
5.912584912750273
 20
-1.936981707632558
 30
0.0
 10
5.912584912750273
 20
-1.847235435812404
 30
0.0
 10
5.912584912750273
 20
-1.757489163992379
 30
0.0
 10
5.985338640889577
 20
-1.68473543585301
 30
0.0
 10
6.075084912709666
 20
-1.68473543585301
 30
0.0
 10
6.164831184529756
 20
-1.68473543585301
 30
0.0
 10
6.23758491266906
 20
-1.757489163992379
 30
0.0
 10
6.23758491266906
 20
-1.847235435812404
 30
0.0
 10
6.23758491266906
 20
-1.936981707632558
 30
0.0
 10
6.164831184529756
 20
-2.009735435771798
 30
0.0
 10
6.075084912709666
 20
-2.009735435771798
 30
0.0
  0
SPLINE
  5
43
330
1F
100
AcDbEntity
  8
Layer 1
 62
   250
420
  2301728
370
     9
100
AcDbSpline
210
0.0
220
0.0
230
1.0
 70
    11
 71
     3
 72
    17
 73
    13
 74
     0
 42
0.0000000001
 43
0.0000000001
 12
1.0
 22
0.0
 32
0.0
 13
1.0
 23
0.0
 33
0.0
 40
0.0
 40
0.0
 40
0.0
 40
0.0
 40
1.0
 40
1.0
 40
1.0
 40
2.0
 40
2.0
 40
2.0
 40
3.0
 40
3.0
 40
3.0
 40
4.0
 40
4.0
 40
4.0
 40
4.0
 10
6.075084912709666
 20
-7.570735434381564
 30
0.0
 10
5.985338640889577
 20
-7.570735434381564
 30
0.0
 10
5.912584912750273
 20
-7.497981706242324
 30
0.0
 10
5.912584912750273
 20
-7.40823543442217
 30
0.0
 10
5.912584912750273
 20
-7.318489162602144
 30
0.0
 10
5.985338640889577
 20
-7.245735434462776
 30
0.0
 10
6.075084912709666
 20
-7.245735434462776
 30
0.0
 10
6.164831184529628
 20
-7.245735434462776
 30
0.0
 10
6.237584912668932
 20
-7.318489162602144
 30
0.0
 10
6.237584912668932
 20
-7.40823543442217
 30
0.0
 10
6.237584912668932
 20
-7.497981706242324
 30
0.0
 10
6.164831184529628
 20
-7.570735434381564
 30
0.0
 10
6.075084912709666
 20
-7.570735434381564
 30
0.0
  0
SPLINE
  5
44
330
1F
100
AcDbEntity
  8
Layer 1
 62
   250
420
  2301728
370
     9
100
AcDbSpline
210
0.0
220
0.0
230
1.0
 70
    11
 71
     3
 72
    17
 73
    13
 74
     0
 42
0.0000000001
 43
0.0000000001
 12
1.0
 22
0.0
 32
0.0
 13
1.0
 23
0.0
 33
0.0
 40
0.0
 40
0.0
 40
0.0
 40
0.0
 40
1.0
 40
1.0
 40
1.0
 40
2.0
 40
2.0
 40
2.0
 40
3.0
 40
3.0
 40
3.0
 40
4.0
 40
4.0
 40
4.0
 40
4.0
 10
8.00508491222708
 20
-2.009735435771798
 30
0.0
 10
7.915338640406991
 20
-2.009735435771798
 30
0.0
 10
7.842584912267719
 20
-1.936981707632558
 30
0.0
 10
7.842584912267719
 20
-1.847235435812404
 30
0.0
 10
7.842584912267719
 20
-1.757489163992379
 30
0.0
 10
7.915338640406991
 20
-1.68473543585301
 30
0.0
 10
8.00508491222708
 20
-1.68473543585301
 30
0.0
 10
8.094831184047202
 20
-1.68473543585301
 30
0.0
 10
8.167584912186507
 20
-1.757489163992379
 30
0.0
 10
8.167584912186507
 20
-1.847235435812404
 30
0.0
 10
8.167584912186507
 20
-1.936981707632558
 30
0.0
 10
8.094831184047202
 20
-2.009735435771798
 30
0.0
 10
8.00508491222708
 20
-2.009735435771798
 30
0.0
  0
SPLINE
  5
45
330
1F
100
AcDbEntity
  8
Layer 1
 62
   250
420
  2301728
370
     9
100
AcDbSpline
210
0.0
220
0.0
230
1.0
 70
    11
 71
     3
 72
    17
 73
    13
 74
     0
 42
0.0000000001
 43
0.0000000001
 12
1.0
 22
0.0
 32
0.0
 13
1.0
 23
0.0
 33
0.0
 40
0.0
 40
0.0
 40
0.0
 40
0.0
 40
1.0
 40
1.0
 40
1.0
 40
2.0
 40
2.0
 40
2.0
 40
3.0
 40
3.0
 40
3.0
 40
4.0
 40
4.0
 40
4.0
 40
4.0
 10
8.00508491222708
 20
-7.570735434381564
 30
0.0
 10
7.915338640406991
 20
-7.570735434381564
 30
0.0
 10
7.842584912267719
 20
-7.497981706242324
 30
0.0
 10
7.842584912267719
 20
-7.40823543442217
 30
0.0
 10
7.842584912267719
 20
-7.318489162602144
 30
0.0
 10
7.915338640406991
 20
-7.245735434462776
 30
0.0
 10
8.00508491222708
 20
-7.245735434462776
 30
0.0
 10
8.094831184047202
 20
-7.245735434462776
 30
0.0
 10
8.167584912186507
 20
-7.318489162602144
 30
0.0
 10
8.167584912186507
 20
-7.40823543442217
 30
0.0
 10
8.167584912186507
 20
-7.497981706242324
 30
0.0
 10
8.094831184047202
 20
-7.570735434381564
 30
0.0
 10
8.00508491222708
 20
-7.570735434381564
 30
0.0
  0
SPLINE
  5
46
330
1F
100
AcDbEntity
  8
Layer 1
 62
   250
420
  2301728
370
     9
100
AcDbSpline
210
0.0
220
0.0
230
1.0
 70
    11
 71
     3
 72
    17
 73
    13
 74
     0
 42
0.0000000001
 43
0.0000000001
 12
1.0
 22
0.0
 32
0.0
 13
1.0
 23
0.0
 33
0.0
 40
0.0
 40
0.0
 40
0.0
 40
0.0
 40
1.0
 40
1.0
 40
1.0
 40
2.0
 40
2.0
 40
2.0
 40
3.0
 40
3.0
 40
3.0
 40
4.0
 40
4.0
 40
4.0
 40
4.0
 10
9.935084911744655
 20
-2.009735435771798
 30
0.0
 10
9.845338639924565
 20
-2.009735435771798
 30
0.0
 10
9.77258491178526
 20
-1.936981707632558
 30
0.0
 10
9.77258491178526
 20
-1.847235435812404
 30
0.0
 10
9.77258491178526
 20
-1.757489163992379
 30
0.0
 10
9.845338639924565
 20
-1.68473543585301
 30
0.0
 10
9.935084911744655
 20
-1.68473543585301
 30
0.0
 10
10.02483118356474
 20
-1.68473543585301
 30
0.0
 10
10.09758491170405
 20
-1.757489163992379
 30
0.0
 10
10.09758491170405
 20
-1.847235435812404
 30
0.0
 10
10.09758491170405
 20
-1.936981707632558
 30
0.0
 10
10.02483118356474
 20
-2.009735435771798
 30
0.0
 10
9.935084911744655
 20
-2.009735435771798
 30
0.0
  0
SPLINE
  5
47
330
1F
100
AcDbEntity
  8
Layer 1
 62
   250
420
  2301728
370
     9
100
AcDbSpline
210
0.0
220
0.0
230
1.0
 70
    11
 71
     3
 72
    17
 73
    13
 74
     0
 42
0.0000000001
 43
0.0000000001
 12
1.0
 22
0.0
 32
0.0
 13
1.0
 23
0.0
 33
0.0
 40
0.0
 40
0.0
 40
0.0
 40
0.0
 40
1.0
 40
1.0
 40
1.0
 40
2.0
 40
2.0
 40
2.0
 40
3.0
 40
3.0
 40
3.0
 40
4.0
 40
4.0
 40
4.0
 40
4.0
 10
9.935084911744655
 20
-7.570735434381564
 30
0.0
 10
9.845338639924565
 20
-7.570735434381564
 30
0.0
 10
9.77258491178526
 20
-7.497981706242324
 30
0.0
 10
9.77258491178526
 20
-7.40823543442217
 30
0.0
 10
9.77258491178526
 20
-7.318489162602144
 30
0.0
 10
9.845338639924565
 20
-7.245735434462776
 30
0.0
 10
9.935084911744655
 20
-7.245735434462776
 30
0.0
 10
10.02483118356474
 20
-7.245735434462776
 30
0.0
 10
10.09758491170405
 20
-7.318489162602144
 30
0.0
 10
10.09758491170405
 20
-7.40823543442217
 30
0.0
 10
10.09758491170405
 20
-7.497981706242324
 30
0.0
 10
10.02483118356474
 20
-7.570735434381564
 30
0.0
 10
9.935084911744655
 20
-7.570735434381564
 30
0.0
  0
SPLINE
  5
48
330
1F
100
AcDbEntity
  8
Layer 1
 62
   250
420
  2301728
370
     9
100
AcDbSpline
210
0.0
220
0.0
230
1.0
 70
    11
 71
     3
 72
    17
 73
    13
 74
     0
 42
0.0000000001
 43
0.0000000001
 12
1.0
 22
0.0
 32
0.0
 13
1.0
 23
0.0
 33
0.0
 40
0.0
 40
0.0
 40
0.0
 40
0.0
 40
1.0
 40
1.0
 40
1.0
 40
2.0
 40
2.0
 40
2.0
 40
3.0
 40
3.0
 40
3.0
 40
4.0
 40
4.0
 40
4.0
 40
4.0
 10
1.666557746534722
 20
-3.127735434391826
 30
0.0
 10
1.666557746534722
 20
-3.217481706211883
 30
0.0
 10
1.593804018395417
 20
-3.290235434351187
 30
0.0
 10
1.504057746575328
 20
-3.290235434351187
 30
0.0
 10
1.414311474755238
 20
-3.290235434351187
 30
0.0
 10
1.341557746615934
 20
-3.217481706211883
 30
0.0
 10
1.341557746615934
 20
-3.127735434391826
 30
0.0
 10
1.341557746615934
 20
-3.037989162571768
 30
0.0
 10
1.414311474755238
 20
-2.965235434432463
 30
0.0
 10
1.504057746575328
 20
-2.965235434432463
 30
0.0
 10
1.593804018395417
 20
-2.965235434432463
 30
0.0
 10
1.666557746534722
 20
-3.037989162571768
 30
0.0
 10
1.666557746534722
 20
-3.127735434391826
 30
0.0
  0
SPLINE
  5
49
330
1F
100
AcDbEntity
  8
Layer 1
 62
   250
420
  2301728
370
     9
100
AcDbSpline
210
0.0
220
0.0
230
1.0
 70
    11
 71
     3
 72
    17
 73
    13
 74
     0
 42
0.0000000001
 43
0.0000000001
 12
1.0
 22
0.0
 32
0.0
 13
1.0
 23
0.0
 33
0.0
 40
0.0
 40
0.0
 40
0.0
 40
0.0
 40
1.0
 40
1.0
 40
1.0
 40
2.0
 40
2.0
 40
2.0
 40
3.0
 40
3.0
 40
3.0
 40
4.0
 40
4.0
 40
4.0
 40
4.0
 10
1.666557746534722
 20
-6.127735433641817
 30
0.0
 10
1.666557746534722
 20
-6.217481705461874
 30
0.0
 10
1.593804018395417
 20
-6.290235433601179
 30
0.0
 10
1.504057746575328
 20
-6.290235433601179
 30
0.0
 10
1.414311474755238
 20
-6.290235433601179
 30
0.0
 10
1.341557746615934
 20
-6.217481705461874
 30
0.0
 10
1.341557746615934
 20
-6.127735433641817
 30
0.0
 10
1.341557746615934
 20
-6.037989161821759
 30
0.0
 10
1.414311474755238
 20
-5.965235433682455
 30
0.0
 10
1.504057746575328
 20
-5.965235433682455
 30
0.0
 10
1.593804018395417
 20
-5.965235433682455
 30
0.0
 10
1.666557746534722
 20
-6.037989161821759
 30
0.0
 10
1.666557746534722
 20
-6.127735433641817
 30
0.0
  0
SPLINE
  5
4A
330
1F
100
AcDbEntity
  8
Layer 1
 62
   250
420
  2301728
370
     9
100
AcDbSpline
210
0.0
220
0.0
230
1.0
 70
    11
 71
     3
 72
    17
 73
    13
 74
     0
 42
0.0000000001
 43
0.0000000001
 12
1.0
 22
0.0
 32
0.0
 13
1.0
 23
0.0
 33
0.0
 40
0.0
 40
0.0
 40
0.0
 40
0.0
 40
1.0
 40
1.0
 40
1.0
 40
2.0
 40
2.0
 40
2.0
 40
3.0
 40
3.0
 40
3.0
 40
4.0
 40
4.0
 40
4.0
 40
4.0
 10
4.666557745784681
 20
-3.127735434391826
 30
0.0
 10
4.666557745784681
 20
-3.217481706211883
 30
0.0
 10
4.593804017645377
 20
-3.290235434351187
 30
0.0
 10
4.504057745825415
 20
-3.290235434351187
 30
0.0
 10
4.414311474005326
 20
-3.290235434351187
 30
0.0
 10
4.341557745866021
 20
-3.217481706211883
 30
0.0
 10
4.341557745866021
 20
-3.127735434391826
 30
0.0
 10
4.341557745866021
 20
-3.037989162571768
 30
0.0
 10
4.414311474005326
 20
-2.965235434432463
 30
0.0
 10
4.504057745825415
 20
-2.965235434432463
 30
0.0
 10
4.593804017645377
 20
-2.965235434432463
 30
0.0
 10
4.666557745784681
 20
-3.037989162571768
 30
0.0
 10
4.666557745784681
 20
-3.127735434391826
 30
0.0
  0
SPLINE
  5
4B
330
1F
100
AcDbEntity
  8
Layer 1
 62
   250
420
  2301728
370
     9
100
AcDbSpline
210
0.0
220
0.0
230
1.0
 70
    11
 71
     3
 72
    17
 73
    13
 74
     0
 42
0.0000000001
 43
0.0000000001
 12
1.0
 22
0.0
 32
0.0
 13
1.0
 23
0.0
 33
0.0
 40
0.0
 40
0.0
 40
0.0
 40
0.0
 40
1.0
 40
1.0
 40
1.0
 40
2.0
 40
2.0
 40
2.0
 40
3.0
 40
3.0
 40
3.0
 40
4.0
 40
4.0
 40
4.0
 40
4.0
 10
4.666557745784681
 20
-6.127735433641817
 30
0.0
 10
4.666557745784681
 20
-6.217481705461874
 30
0.0
 10
4.593804017645377
 20
-6.290235433601179
 30
0.0
 10
4.504057745825415
 20
-6.290235433601179
 30
0.0
 10
4.414311474005326
 20
-6.290235433601179
 30
0.0
 10
4.341557745866021
 20
-6.217481705461874
 30
0.0
 10
4.341557745866021
 20
-6.127735433641817
 30
0.0
 10
4.341557745866021
 20
-6.037989161821759
 30
0.0
 10
4.414311474005326
 20
-5.965235433682455
 30
0.0
 10
4.504057745825415
 20
-5.965235433682455
 30
0.0
 10
4.593804017645377
 20
-5.965235433682455
 30
0.0
 10
4.666557745784681
 20
-6.037989161821759
 30
0.0
 10
4.666557745784681
 20
-6.127735433641817
 30
0.0
  0
SPLINE
  5
4C
330
1F
100
AcDbEntity
  8
Layer 1
 62
   250
420
  2301728
370
     9
100
AcDbSpline
210
0.0
220
0.0
230
1.0
 70
    11
 71
     3
 72
    17
 73
    13
 74
     0
 42
0.0000000001
 43
0.0000000001
 12
1.0
 22
0.0
 32
0.0
 13
1.0
 23
0.0
 33
0.0
 40
0.0
 40
0.0
 40
0.0
 40
0.0
 40
1.0
 40
1.0
 40
1.0
 40
2.0
 40
2.0
 40
2.0
 40
3.0
 40
3.0
 40
3.0
 40
4.0
 40
4.0
 40
4.0
 40
4.0
 10
3.166557746159573
 20
-3.127735434391826
 30
0.0
 10
3.166557746159573
 20
-3.217481706211883
 30
0.0
 10
3.093804018020269
 20
-3.290235434351187
 30
0.0
 10
3.004057746200308
 20
-3.290235434351187
 30
0.0
 10
2.914311474380218
 20
-3.290235434351187
 30
0.0
 10
2.841557746240913
 20
-3.217481706211883
 30
0.0
 10
2.841557746240913
 20
-3.127735434391826
 30
0.0
 10
2.841557746240913
 20
-3.037989162571768
 30
0.0
 10
2.914311474380218
 20
-2.965235434432463
 30
0.0
 10
3.004057746200308
 20
-2.965235434432463
 30
0.0
 10
3.093804018020269
 20
-2.965235434432463
 30
0.0
 10
3.166557746159573
 20
-3.037989162571768
 30
0.0
 10
3.166557746159573
 20
-3.127735434391826
 30
0.0
  0
SPLINE
  5
4D
330
1F
100
AcDbEntity
  8
Layer 1
 62
   250
420
  2301728
370
     9
100
AcDbSpline
210
0.0
220
0.0
230
1.0
 70
    11
 71
     3
 72
    17
 73
    13
 74
     0
 42
0.0000000001
 43
0.0000000001
 12
1.0
 22
0.0
 32
0.0
 13
1.0
 23
0.0
 33
0.0
 40
0.0
 40
0.0
 40
0.0
 40
0.0
 40
1.0
 40
1.0
 40
1.0
 40
2.0
 40
2.0
 40
2.0
 40
3.0
 40
3.0
 40
3.0
 40
4.0
 40
4.0
 40
4.0
 40
4.0
 10
3.166557746159573
 20
-6.127735433641817
 30
0.0
 10
3.166557746159573
 20
-6.217481705461874
 30
0.0
 10
3.093804018020269
 20
-6.290235433601179
 30
0.0
 10
3.004057746200308
 20
-6.290235433601179
 30
0.0
 10
2.914311474380218
 20
-6.290235433601179
 30
0.0
 10
2.841557746240913
 20
-6.217481705461874
 30
0.0
 10
2.841557746240913
 20
-6.127735433641817
 30
0.0
 10
2.841557746240913
 20
-6.037989161821759
 30
0.0
 10
2.914311474380218
 20
-5.965235433682455
 30
0.0
 10
3.004057746200308
 20
-5.965235433682455
 30
0.0
 10
3.093804018020269
 20
-5.965235433682455
 30
0.0
 10
3.166557746159573
 20
-6.037989161821759
 30
0.0
 10
3.166557746159573
 20
-6.127735433641817
 30
0.0
  0
SPLINE
  5
4E
330
1F
100
AcDbEntity
  8
Layer 1
 62
   250
420
  2301728
370
     9
100
AcDbSpline
210
0.0
220
0.0
230
1.0
 70
    11
 71
     3
 72
    17
 73
    13
 74
     0
 42
0.0000000001
 43
0.0000000001
 12
1.0
 22
0.0
 32
0.0
 13
1.0
 23
0.0
 33
0.0
 40
0.0
 40
0.0
 40
0.0
 40
0.0
 40
1.0
 40
1.0
 40
1.0
 40
2.0
 40
2.0
 40
2.0
 40
3.0
 40
3.0
 40
3.0
 40
4.0
 40
4.0
 40
4.0
 40
4.0
 10
14.3436120779196
 20
-6.127735434742395
 30
0.0
 10
14.3436120779196
 20
-6.037989162922337
 30
0.0
 10
14.4163658060589
 20
-5.965235434783033
 30
0.0
 10
14.50611207787899
 20
-5.965235434783033
 30
0.0
 10
14.59585834969908
 20
-5.965235434783033
 30
0.0
 10
14.66861207783839
 20
-6.037989162922337
 30
0.0
 10
14.66861207783839
 20
-6.127735434742395
 30
0.0
 10
14.66861207783839
 20
-6.217481706562452
 30
0.0
 10
14.59585834969908
 20
-6.290235434701757
 30
0.0
 10
14.50611207787899
 20
-6.290235434701757
 30
0.0
 10
14.4163658060589
 20
-6.290235434701757
 30
0.0
 10
14.3436120779196
 20
-6.217481706562452
 30
0.0
 10
14.3436120779196
 20
-6.127735434742395
 30
0.0
  0
SPLINE
  5
4F
330
1F
100
AcDbEntity
  8
Layer 1
 62
   250
420
  2301728
370
     9
100
AcDbSpline
210
0.0
220
0.0
230
1.0
 70
    11
 71
     3
 72
    17
 73
    13
 74
     0
 42
0.0000000001
 43
0.0000000001
 12
1.0
 22
0.0
 32
0.0
 13
1.0
 23
0.0
 33
0.0
 40
0.0
 40
0.0
 40
0.0
 40
0.0
 40
1.0
 40
1.0
 40
1.0
 40
2.0
 40
2.0
 40
2.0
 40
3.0
 40
3.0
 40
3.0
 40
4.0
 40
4.0
 40
4.0
 40
4.0
 10
14.3436120779196
 20
-3.127735435492403
 30
0.0
 10
14.3436120779196
 20
-3.037989163672346
 30
0.0
 10
14.4163658060589
 20
-2.965235435533041
 30
0.0
 10
14.50611207787899
 20
-2.965235435533041
 30
0.0
 10
14.59585834969908
 20
-2.965235435533041
 30
0.0
 10
14.66861207783839
 20
-3.037989163672346
 30
0.0
 10
14.66861207783839
 20
-3.127735435492403
 30
0.0
 10
14.66861207783839
 20
-3.217481707312461
 30
0.0
 10
14.59585834969908
 20
-3.290235435451766
 30
0.0
 10
14.50611207787899
 20
-3.290235435451766
 30
0.0
 10
14.4163658060589
 20
-3.290235435451766
 30
0.0
 10
14.3436120779196
 20
-3.217481707312461
 30
0.0
 10
14.3436120779196
 20
-3.127735435492403
 30
0.0
  0
SPLINE
  5
50
330
1F
100
AcDbEntity
  8
Layer 1
 62
   250
420
  2301728
370
     9
100
AcDbSpline
210
0.0
220
0.0
230
1.0
 70
    11
 71
     3
 72
    17
 73
    13
 74
     0
 42
0.0000000001
 43
0.0000000001
 12
1.0
 22
0.0
 32
0.0
 13
1.0
 23
0.0
 33
0.0
 40
0.0
 40
0.0
 40
0.0
 40
0.0
 40
1.0
 40
1.0
 40
1.0
 40
2.0
 40
2.0
 40
2.0
 40
3.0
 40
3.0
 40
3.0
 40
4.0
 40
4.0
 40
4.0
 40
4.0
 10
11.34361207866964
 20
-6.127735434742395
 30
0.0
 10
11.34361207866964
 20
-6.037989162922337
 30
0.0
 10
11.41636580680894
 20
-5.965235434783033
 30
0.0
 10
11.50611207862903
 20
-5.965235434783033
 30
0.0
 10
11.59585835044912
 20
-5.965235434783033
 30
0.0
 10
11.66861207858843
 20
-6.037989162922337
 30
0.0
 10
11.66861207858843
 20
-6.127735434742395
 30
0.0
 10
11.66861207858843
 20
-6.217481706562452
 30
0.0
 10
11.59585835044912
 20
-6.290235434701757
 30
0.0
 10
11.50611207862903
 20
-6.290235434701757
 30
0.0
 10
11.41636580680894
 20
-6.290235434701757
 30
0.0
 10
11.34361207866964
 20
-6.217481706562452
 30
0.0
 10
11.34361207866964
 20
-6.127735434742395
 30
0.0
  0
SPLINE
  5
51
330
1F
100
AcDbEntity
  8
Layer 1
 62
   250
420
  2301728
370
     9
100
AcDbSpline
210
0.0
220
0.0
230
1.0
 70
    11
 71
     3
 72
    17
 73
    13
 74
     0
 42
0.0000000001
 43
0.0000000001
 12
1.0
 22
0.0
 32
0.0
 13
1.0
 23
0.0
 33
0.0
 40
0.0
 40
0.0
 40
0.0
 40
0.0
 40
1.0
 40
1.0
 40
1.0
 40
2.0
 40
2.0
 40
2.0
 40
3.0
 40
3.0
 40
3.0
 40
4.0
 40
4.0
 40
4.0
 40
4.0
 10
11.34361207866964
 20
-3.127735435492403
 30
0.0
 10
11.34361207866964
 20
-3.037989163672346
 30
0.0
 10
11.41636580680894
 20
-2.965235435533041
 30
0.0
 10
11.50611207862903
 20
-2.965235435533041
 30
0.0
 10
11.59585835044912
 20
-2.965235435533041
 30
0.0
 10
11.66861207858843
 20
-3.037989163672346
 30
0.0
 10
11.66861207858843
 20
-3.127735435492403
 30
0.0
 10
11.66861207858843
 20
-3.217481707312461
 30
0.0
 10
11.59585835044912
 20
-3.290235435451766
 30
0.0
 10
11.50611207862903
 20
-3.290235435451766
 30
0.0
 10
11.41636580680894
 20
-3.290235435451766
 30
0.0
 10
11.34361207866964
 20
-3.217481707312461
 30
0.0
 10
11.34361207866964
 20
-3.127735435492403
 30
0.0
  0
SPLINE
  5
52
330
1F
100
AcDbEntity
  8
Layer 1
 62
   250
420
  2301728
370
     9
100
AcDbSpline
210
0.0
220
0.0
230
1.0
 70
    11
 71
     3
 72
    17
 73
    13
 74
     0
 42
0.0000000001
 43
0.0000000001
 12
1.0
 22
0.0
 32
0.0
 13
1.0
 23
0.0
 33
0.0
 40
0.0
 40
0.0
 40
0.0
 40
0.0
 40
1.0
 40
1.0
 40
1.0
 40
2.0
 40
2.0
 40
2.0
 40
3.0
 40
3.0
 40
3.0
 40
4.0
 40
4.0
 40
4.0
 40
4.0
 10
12.84361207829462
 20
-6.127735434742395
 30
0.0
 10
12.84361207829462
 20
-6.037989162922337
 30
0.0
 10
12.91636580643392
 20
-5.965235434783033
 30
0.0
 10
13.00611207825401
 20
-5.965235434783033
 30
0.0
 10
13.09585835007397
 20
-5.965235434783033
 30
0.0
 10
13.16861207821341
 20
-6.037989162922337
 30
0.0
 10
13.16861207821341
 20
-6.127735434742395
 30
0.0
 10
13.16861207821341
 20
-6.217481706562452
 30
0.0
 10
13.09585835007397
 20
-6.290235434701757
 30
0.0
 10
13.00611207825401
 20
-6.290235434701757
 30
0.0
 10
12.91636580643392
 20
-6.290235434701757
 30
0.0
 10
12.84361207829462
 20
-6.217481706562452
 30
0.0
 10
12.84361207829462
 20
-6.127735434742395
 30
0.0
  0
SPLINE
  5
53
330
1F
100
AcDbEntity
  8
Layer 1
 62
   250
420
  2301728
370
     9
100
AcDbSpline
210
0.0
220
0.0
230
1.0
 70
    11
 71
     3
 72
    17
 73
    13
 74
     0
 42
0.0000000001
 43
0.0000000001
 12
1.0
 22
0.0
 32
0.0
 13
1.0
 23
0.0
 33
0.0
 40
0.0
 40
0.0
 40
0.0
 40
0.0
 40
1.0
 40
1.0
 40
1.0
 40
2.0
 40
2.0
 40
2.0
 40
3.0
 40
3.0
 40
3.0
 40
4.0
 40
4.0
 40
4.0
 40
4.0
 10
12.84361207829462
 20
-3.127735435492403
 30
0.0
 10
12.84361207829462
 20
-3.037989163672346
 30
0.0
 10
12.91636580643392
 20
-2.965235435533041
 30
0.0
 10
13.00611207825401
 20
-2.965235435533041
 30
0.0
 10
13.09585835007397
 20
-2.965235435533041
 30
0.0
 10
13.16861207821341
 20
-3.037989163672346
 30
0.0
 10
13.16861207821341
 20
-3.127735435492403
 30
0.0
 10
13.16861207821341
 20
-3.217481707312461
 30
0.0
 10
13.09585835007397
 20
-3.290235435451766
 30
0.0
 10
13.00611207825401
 20
-3.290235435451766
 30
0.0
 10
12.91636580643392
 20
-3.290235435451766
 30
0.0
 10
12.84361207829462
 20
-3.217481707312461
 30
0.0
 10
12.84361207829462
 20
-3.127735435492403
 30
0.0
  0
SPLINE
  5
54
330
1F
100
AcDbEntity
  8
Layer 1
 62
   250
420
  2301728
370
     9
100
AcDbSpline
210
0.0
220
0.0
230
1.0
 70
    11
 71
     3
 72
    17
 73
    13
 74
     0
 42
0.0000000001
 43
0.0000000001
 12
1.0
 22
0.0
 32
0.0
 13
1.0
 23
0.0
 33
0.0
 40
0.0
 40
0.0
 40
0.0
 40
0.0
 40
1.0
 40
1.0
 40
1.0
 40
2.0
 40
2.0
 40
2.0
 40
3.0
 40
3.0
 40
3.0
 40
4.0
 40
4.0
 40
4.0
 40
4.0
 10
14.3436120779196
 20
-1.742735435838664
 30
0.0
 10
14.3436120779196
 20
-1.652989164018606
 30
0.0
 10
14.4163658060589
 20
-1.580235435879302
 30
0.0
 10
14.50611207787899
 20
-1.580235435879302
 30
0.0
 10
14.59585834969908
 20
-1.580235435879302
 30
0.0
 10
14.66861207783839
 20
-1.652989164018606
 30
0.0
 10
14.66861207783839
 20
-1.742735435838664
 30
0.0
 10
14.66861207783839
 20
-1.832481707658721
 30
0.0
 10
14.59585834969908
 20
-1.905235435798026
 30
0.0
 10
14.50611207787899
 20
-1.905235435798026
 30
0.0
 10
14.4163658060589
 20
-1.905235435798026
 30
0.0
 10
14.3436120779196
 20
-1.832481707658721
 30
0.0
 10
14.3436120779196
 20
-1.742735435838664
 30
0.0
  0
SPLINE
  5
55
330
1F
100
AcDbEntity
  8
Layer 1
 62
   250
420
  2301728
370
     9
100
AcDbSpline
210
0.0
220
0.0
230
1.0
 70
    11
 71
     3
 72
    17
 73
    13
 74
     0
 42
0.0000000001
 43
0.0000000001
 12
1.0
 22
0.0
 32
0.0
 13
1.0
 23
0.0
 33
0.0
 40
0.0
 40
0.0
 40
0.0
 40
0.0
 40
1.0
 40
1.0
 40
1.0
 40
2.0
 40
2.0
 40
2.0
 40
3.0
 40
3.0
 40
3.0
 40
4.0
 40
4.0
 40
4.0
 40
4.0
 10
1.341557746615902
 20
-1.742735435838664
 30
0.0
 10
1.341557746615902
 20
-1.652989164018606
 30
0.0
 10
1.414311474755206
 20
-1.580235435879302
 30
0.0
 10
1.504057746575296
 20
-1.580235435879302
 30
0.0
 10
1.593804018395385
 20
-1.580235435879302
 30
0.0
 10
1.66655774653469
 20
-1.652989164018606
 30
0.0
 10
1.66655774653469
 20
-1.742735435838664
 30
0.0
 10
1.66655774653469
 20
-1.832481707658721
 30
0.0
 10
1.593804018395385
 20
-1.905235435798026
 30
0.0
 10
1.504057746575296
 20
-1.905235435798026
 30
0.0
 10
1.414311474755206
 20
-1.905235435798026
 30
0.0
 10
1.341557746615902
 20
-1.832481707658721
 30
0.0
 10
1.341557746615902
 20
-1.742735435838664
 30
0.0
  0
SPLINE
  5
56
330
1F
100
AcDbEntity
  8
Layer 1
 62
   250
420
  2301728
370
     9
100
AcDbSpline
210
0.0
220
0.0
230
1.0
 70
    11
 71
     3
 72
    17
 73
    13
 74
     0
 42
0.0000000001
 43
0.0000000001
 12
1.0
 22
0.0
 32
0.0
 13
1.0
 23
0.0
 33
0.0
 40
0.0
 40
0.0
 40
0.0
 40
0.0
 40
1.0
 40
1.0
 40
1.0
 40
2.0
 40
2.0
 40
2.0
 40
3.0
 40
3.0
 40
3.0
 40
4.0
 40
4.0
 40
4.0
 40
4.0
 10
14.3436120779196
 20
-7.512735434260768
 30
0.0
 10
14.3436120779196
 20
-7.422989162440711
 30
0.0
 10
14.4163658060589
 20
-7.350235434301406
 30
0.0
 10
14.50611207787899
 20
-7.350235434301406
 30
0.0
 10
14.59585834969908
 20
-7.350235434301406
 30
0.0
 10
14.66861207783839
 20
-7.422989162440711
 30
0.0
 10
14.66861207783839
 20
-7.512735434260768
 30
0.0
 10
14.66861207783839
 20
-7.602481706080826
 30
0.0
 10
14.59585834969908
 20
-7.675235434220131
 30
0.0
 10
14.50611207787899
 20
-7.675235434220131
 30
0.0
 10
14.4163658060589
 20
-7.675235434220131
 30
0.0
 10
14.3436120779196
 20
-7.602481706080826
 30
0.0
 10
14.3436120779196
 20
-7.512735434260768
 30
0.0
  0
SPLINE
  5
57
330
1F
100
AcDbEntity
  8
Layer 1
 62
   250
420
  2301728
370
     9
100
AcDbSpline
210
0.0
220
0.0
230
1.0
 70
    11
 71
     3
 72
    17
 73
    13
 74
     0
 42
0.0000000001
 43
0.0000000001
 12
1.0
 22
0.0
 32
0.0
 13
1.0
 23
0.0
 33
0.0
 40
0.0
 40
0.0
 40
0.0
 40
0.0
 40
1.0
 40
1.0
 40
1.0
 40
2.0
 40
2.0
 40
2.0
 40
3.0
 40
3.0
 40
3.0
 40
4.0
 40
4.0
 40
4.0
 40
4.0
 10
1.341557746615902
 20
-7.512735434260768
 30
0.0
 10
1.341557746615902
 20
-7.422989162440711
 30
0.0
 10
1.414311474755206
 20
-7.350235434301406
 30
0.0
 10
1.504057746575296
 20
-7.350235434301406
 30
0.0
 10
1.593804018395385
 20
-7.350235434301406
 30
0.0
 10
1.66655774653469
 20
-7.422989162440711
 30
0.0
 10
1.66655774653469
 20
-7.512735434260768
 30
0.0
 10
1.66655774653469
 20
-7.602481706080826
 30
0.0
 10
1.593804018395385
 20
-7.675235434220131
 30
0.0
 10
1.504057746575296
 20
-7.675235434220131
 30
0.0
 10
1.414311474755206
 20
-7.675235434220131
 30
0.0
 10
1.341557746615902
 20
-7.602481706080826
 30
0.0
 10
1.341557746615902
 20
-7.512735434260768
 30
0.0
  0
SPLINE
  5
58
330
1F
100
AcDbEntity
  8
Layer 1
 62
   250
420
  2301728
370
     9
100
AcDbSpline
210
0.0
220
0.0
230
1.0
 70
    11
 71
     3
 72
    29
 73
    25
 74
     0
 42
0.0000000001
 43
0.0000000001
 12
1.0
 22
0.0
 32
0.0
 13
1.0
 23
0.0
 33
0.0
 40
0.0
 40
0.0
 40
0.0
 40
0.0
 40
1.0
 40
1.0
 40
1.0
 40
2.0
 40
2.0
 40
2.0
 40
3.0
 40
3.0
 40
3.0
 40
4.0
 40
4.0
 40
4.0
 40
5.0
 40
5.0
 40
5.0
 40
6.0
 40
6.0
 40
6.0
 40
7.0
 40
7.0
 40
7.0
 40
8.0
 40
8.0
 40
8.0
 40
8.0
 10
4.627071491739418
 20
-1.905235435875479
 30
0.0
 10
4.627071491739418
 20
-1.905235435875479
 30
0.0
 10
2.952071167317003
 20
-1.905235435870313
 30
0.0
 10
2.952071167317003
 20
-1.905235435870313
 30
0.0
 10
2.862324985299229
 20
-1.905235435870025
 30
0.0
 10
2.78957132996652
 20
-1.832481780542064
 30
0.0
 10
2.78957132996036
 20
-1.74273559852429
 30
0.0
 10
2.78957132996036
 20
-1.74273559852429
 30
0.0
 10
2.789571329931932
 20
-1.32773527374183
 30
0.0
 10
2.789571329931932
 20
-1.32773527374183
 30
0.0
 10
2.789571329925772
 20
-1.237989091577909
 30
0.0
 10
2.862324985381495
 20
-1.165235436129181
 30
0.0
 10
2.952071167545416
 20
-1.165235436143908
 30
0.0
 10
2.952071167545416
 20
-1.165235436143908
 30
0.0
 10
4.627071492098288
 20
-1.1652354364191
 30
0.0
 10
4.627071492098288
 20
-1.1652354364191
 30
0.0
 10
4.716817674083272
 20
-1.165235436433827
 30
0.0
 10
4.789571329379339
 20
-1.237989091743692
 30
0.0
 10
4.789571329377093
 20
-1.327735273728675
 30
0.0
 10
4.789571329377093
 20
-1.327735273728675
 30
0.0
 10
4.789571329366666
 20
-1.742735598252819
 30
0.0
 10
4.789571329366666
 20
-1.742735598252819
 30
0.0
 10
4.78957132936442
 20
-1.832481780422676
 30
0.0
 10
4.716817673909275
 20
-1.905235435875768
 30
0.0
 10
4.627071491739418
 20
-1.905235435875479
 30
0.0
  0
SPLINE
  5
59
330
1F
100
AcDbEntity
  8
Layer 1
 62
   250
420
  2301728
370
     9
100
AcDbSpline
210
0.0
220
0.0
230
1.0
 70
    11
 71
     3
 72
    29
 73
    25
 74
     0
 42
0.0000000001
 43
0.0000000001
 12
1.0
 22
0.0
 32
0.0
 13
1.0
 23
0.0
 33
0.0
 40
0.0
 40
0.0
 40
0.0
 40
0.0
 40
1.0
 40
1.0
 40
1.0
 40
2.0
 40
2.0
 40
2.0
 40
3.0
 40
3.0
 40
3.0
 40
4.0
 40
4.0
 40
4.0
 40
5.0
 40
5.0
 40
5.0
 40
6.0
 40
6.0
 40
6.0
 40
7.0
 40
7.0
 40
7.0
 40
8.0
 40
8.0
 40
8.0
 40
8.0
 10
11.38309833294213
 20
-1.905235435813748
 30
0.0
 10
11.38309833294213
 20
-1.905235435813748
 30
0.0
 10
13.05809865731411
 20
-1.905235435791769
 30
0.0
 10
13.05809865731411
 20
-1.905235435791769
 30
0.0
 10
13.14784483913206
 20
-1.905235435790614
 30
0.0
 10
13.22059849430877
 20
-1.832481780637035
 30
0.0
 10
13.22059849433867
 20
-1.742735598819183
 30
0.0
 10
13.22059849433867
 20
-1.742735598819183
 30
0.0
 10
13.22059849447651
 20
-1.327735273400414
 30
0.0
 10
13.22059849447651
 20
-1.327735273400414
 30
0.0
 10
13.22059849450641
 20
-1.23798909145143
 30
0.0
 10
13.14784483923023
 20
-1.165235436165084
 30
0.0
 10
13.05809865728112
 20
-1.165235436182442
 30
0.0
 10
13.05809865728112
 20
-1.165235436182442
 30
0.0
 10
11.38309833193287
 20
-1.165235436506371
 30
0.0
 10
11.38309833193287
 20
-1.165235436506371
 30
0.0
 10
11.29335215007898
 20
-1.165235436523729
 30
0.0
 10
11.22059849489765
 20
-1.237989091741639
 30
0.0
 10
11.22059849492537
 20
-1.327735273595619
 30
0.0
 10
11.22059849492537
 20
-1.327735273595619
 30
0.0
 10
11.22059849505397
 20
-1.742735597977947
 30
0.0
 10
11.22059849505397
 20
-1.742735597977947
 30
0.0
 10
11.22059849508169
 20
-1.832481780273609
 30
0.0
 10
11.2933521506465
 20
-1.905235435814902
 30
0.0
 10
11.38309833294213
 20
-1.905235435813748
 30
0.0
  0
SPLINE
  5
5A
330
1F
100
AcDbEntity
  8
Layer 1
 62
   250
420
  2301728
370
     9
100
AcDbSpline
210
0.0
220
0.0
230
1.0
 70
    11
 71
     3
 72
    29
 73
    25
 74
     0
 42
0.0000000001
 43
0.0000000001
 12
1.0
 22
0.0
 32
0.0
 13
1.0
 23
0.0
 33
0.0
 40
0.0
 40
0.0
 40
0.0
 40
0.0
 40
1.0
 40
1.0
 40
1.0
 40
2.0
 40
2.0
 40
2.0
 40
3.0
 40
3.0
 40
3.0
 40
4.0
 40
4.0
 40
4.0
 40
5.0
 40
5.0
 40
5.0
 40
6.0
 40
6.0
 40
6.0
 40
7.0
 40
7.0
 40
7.0
 40
8.0
 40
8.0
 40
8.0
 40
8.0
 10
2.952071167895688
 20
-8.090235433932712
 30
0.0
 10
2.952071167895688
 20
-8.090235433932712
 30
0.0
 10
4.627071492267665
 20
-8.090235433910733
 30
0.0
 10
4.627071492267665
 20
-8.090235433910733
 30
0.0
 10
4.71681767408555
 20
-8.090235433909578
 30
0.0
 10
4.789571329262325
 20
-8.017481778756
 30
0.0
 10
4.789571329292165
 20
-7.927735596938147
 30
0.0
 10
4.789571329292165
 20
-7.927735596938147
 30
0.0
 10
4.789571329430066
 20
-7.512735271519379
 30
0.0
 10
4.789571329430066
 20
-7.512735271519379
 30
0.0
 10
4.789571329459905
 20
-7.422989089570395
 30
0.0
 10
4.716817674183729
 20
-7.350235434284048
 30
0.0
 10
4.627071492234681
 20
-7.350235434301406
 30
0.0
 10
4.627071492234681
 20
-7.350235434301406
 30
0.0
 10
2.952071166886423
 20
-7.350235434625336
 30
0.0
 10
2.952071166886423
 20
-7.350235434625336
 30
0.0
 10
2.862324985032475
 20
-7.350235434642694
 30
0.0
 10
2.789571329851142
 20
-7.422989089860603
 30
0.0
 10
2.789571329878928
 20
-7.512735271714583
 30
0.0
 10
2.789571329878928
 20
-7.512735271714583
 30
0.0
 10
2.78957133000746
 20
-7.927735596096912
 30
0.0
 10
2.78957133000746
 20
-7.927735596096912
 30
0.0
 10
2.789571330035246
 20
-8.017481778392606
 30
0.0
 10
2.862324985600058
 20
-8.090235433933834
 30
0.0
 10
2.952071167895688
 20
-8.090235433932712
 30
0.0
  0
SPLINE
  5
5B
330
1F
100
AcDbEntity
  8
Layer 1
 62
   250
420
  2301728
370
     9
100
AcDbSpline
210
0.0
220
0.0
230
1.0
 70
    11
 71
     3
 72
    29
 73
    25
 74
     0
 42
0.0000000001
 43
0.0000000001
 12
1.0
 22
0.0
 32
0.0
 13
1.0
 23
0.0
 33
0.0
 40
0.0
 40
0.0
 40
0.0
 40
0.0
 40
1.0
 40
1.0
 40
1.0
 40
2.0
 40
2.0
 40
2.0
 40
3.0
 40
3.0
 40
3.0
 40
4.0
 40
4.0
 40
4.0
 40
5.0
 40
5.0
 40
5.0
 40
6.0
 40
6.0
 40
6.0
 40
7.0
 40
7.0
 40
7.0
 40
8.0
 40
8.0
 40
8.0
 40
8.0
 10
6.075084750687429
 20
-1.165235436272151
 30
0.0
 10
6.075084750687429
 20
-1.165235436272151
 30
0.0
 10
9.935085074706821
 20
-1.165235436193736
 30
0.0
 10
9.935085074706821
 20
-1.165235436193736
 30
0.0
 10
10.02483125652336
 20
-1.165235436191907
 30
0.0
 10
10.0975849117455
 20
-1.092481781127524
 30
0.0
 10
10.09758491194173
 20
-1.002735599310955
 30
0.0
 10
10.09758491194173
 20
-1.002735599310955
 30
0.0
 10
10.09758491194173
 20
-1.002735273932836
 30
0.0
 10
10.09758491194173
 20
-1.002735273932836
 30
0.0
 10
10.09758491213809
 20
-0.9129890917599315
 30
0.0
 10
10.02483125673525
 20
-0.8402354361995155
 30
0.0
 10
9.935085074562311
 20
-0.8402354362014727
 30
0.0
 10
9.935085074562311
 20
-0.8402354362014727
 30
0.0
 10
6.075084750132423
 20
-0.840235436286209
 30
0.0
 10
6.075084750132423
 20
-0.840235436286209
 30
0.0
 10
5.985338568321982
 20
-0.8402354362881662
 30
0.0
 10
5.912584913127142
 20
-0.9129890913896391
 30
0.0
 10
5.912584913009968
 20
-1.00273527320008
 30
0.0
 10
5.912584913009968
 20
-1.00273527320008
 30
0.0
 10
5.912584913009968
 20
-1.002735598385817
 30
0.0
 10
5.912584913009968
 20
-1.002735598385817
 30
0.0
 10
5.912584912892794
 20
-1.092481780667394
 30
0.0
 10
5.985338568405853
 20
-1.16523543627398
 30
0.0
 10
6.075084750687429
 20
-1.165235436272151
 30
0.0
  0
SPLINE
  5
5C
330
1F
100
AcDbEntity
  8
Layer 1
 62
   250
420
  2301728
370
     9
100
AcDbSpline
210
0.0
220
0.0
230
1.0
 70
    11
 71
     3
 72
    29
 73
    25
 74
     0
 42
0.0000000001
 43
0.0000000001
 12
1.0
 22
0.0
 32
0.0
 13
1.0
 23
0.0
 33
0.0
 40
0.0
 40
0.0
 40
0.0
 40
0.0
 40
1.0
 40
1.0
 40
1.0
 40
2.0
 40
2.0
 40
2.0
 40
3.0
 40
3.0
 40
3.0
 40
4.0
 40
4.0
 40
4.0
 40
5.0
 40
5.0
 40
5.0
 40
6.0
 40
6.0
 40
6.0
 40
7.0
 40
7.0
 40
7.0
 40
8.0
 40
8.0
 40
8.0
 40
8.0
 10
6.075084750687429
 20
-8.415235434246465
 30
0.0
 10
6.075084750687429
 20
-8.415235434246465
 30
0.0
 10
9.935085074706821
 20
-8.41523543416805
 30
0.0
 10
9.935085074706821
 20
-8.41523543416805
 30
0.0
 10
10.02483125652336
 20
-8.415235434166222
 30
0.0
 10
10.0975849117455
 20
-8.342481779101838
 30
0.0
 10
10.09758491194173
 20
-8.25273559728527
 30
0.0
 10
10.09758491194173
 20
-8.25273559728527
 30
0.0
 10
10.09758491194173
 20
-8.25273527190715
 30
0.0
 10
10.09758491194173
 20
-8.25273527190715
 30
0.0
 10
10.09758491213809
 20
-8.162989089734246
 30
0.0
 10
10.02483125673525
 20
-8.090235434173831
 30
0.0
 10
9.935085074562311
 20
-8.090235434175787
 30
0.0
 10
9.935085074562311
 20
-8.090235434175787
 30
0.0
 10
6.075084750132423
 20
-8.090235434260524
 30
0.0
 10
6.075084750132423
 20
-8.090235434260524
 30
0.0
 10
5.985338568321982
 20
-8.090235434262514
 30
0.0
 10
5.912584913127142
 20
-8.162989089363954
 30
0.0
 10
5.912584913009968
 20
-8.252735271174394
 30
0.0
 10
5.912584913009968
 20
-8.252735271174394
 30
0.0
 10
5.912584913009968
 20
-8.252735596360132
 30
0.0
 10
5.912584913009968
 20
-8.252735596360132
 30
0.0
 10
5.912584912892794
 20
-8.342481778641709
 30
0.0
 10
5.985338568405853
 20
-8.415235434248295
 30
0.0
 10
6.075084750687429
 20
-8.415235434246465
 30
0.0
  0
SPLINE
  5
5D
330
1F
100
AcDbEntity
  8
Layer 1
 62
   250
420
  2301728
370
     9
100
AcDbSpline
210
0.0
220
0.0
230
1.0
 70
    11
 71
     3
 72
    29
 73
    25
 74
     0
 42
0.0000000001
 43
0.0000000001
 12
1.0
 22
0.0
 32
0.0
 13
1.0
 23
0.0
 33
0.0
 40
0.0
 40
0.0
 40
0.0
 40
0.0
 40
1.0
 40
1.0
 40
1.0
 40
2.0
 40
2.0
 40
2.0
 40
3.0
 40
3.0
 40
3.0
 40
4.0
 40
4.0
 40
4.0
 40
5.0
 40
5.0
 40
5.0
 40
6.0
 40
6.0
 40
6.0
 40
7.0
 40
7.0
 40
7.0
 40
8.0
 40
8.0
 40
8.0
 40
8.0
 10
15.20502577289122
 20
-16.97711702747158
 30
0.0
 10
15.20502577289122
 20
-16.97711702747158
 30
0.0
 10
0.8041168842862232
 20
-16.97711702747158
 30
0.0
 10
0.8041168842862232
 20
-16.97711702747158
 30
0.0
 10
0.6386824430304424
 20
-16.97711702747158
 30
0.0
 10
0.5045713304637404
 20
-16.84300591490488
 30
0.0
 10
0.5045713304637404
 20
-16.6775714736491
 30
0.0
 10
0.5045713304637404
 20
-16.6775714736491
 30
0.0
 10
0.5045713304637404
 20
-9.276662583294085
 30
0.0
 10
0.5045713304637404
 20
-9.276662583294085
 30
0.0
 10
0.5045713304637404
 20
-9.111228142038303
 30
0.0
 10
0.6386824430304424
 20
-8.977117029471602
 30
0.0
 10
0.8041168842862232
 20
-8.977117029471602
 30
0.0
 10
0.8041168842862232
 20
-8.977117029471602
 30
0.0
 10
15.20502577289122
 20
-8.977117029471602
 30
0.0
 10
15.20502577289122
 20
-8.977117029471602
 30
0.0
 10
15.37046021414696
 20
-8.977117029471602
 30
0.0
 10
15.5045713267137
 20
-9.111228142038303
 30
0.0
 10
15.5045713267137
 20
-9.276662583294085
 30
0.0
 10
15.5045713267137
 20
-9.276662583294085
 30
0.0
 10
15.5045713267137
 20
-16.6775714736491
 30
0.0
 10
15.5045713267137
 20
-16.6775714736491
 30
0.0
 10
15.5045713267137
 20
-16.84300591490488
 30
0.0
 10
15.37046021414696
 20
-16.97711702747158
 30
0.0
 10
15.20502577289122
 20
-16.97711702747158
 30
0.0
  0
SPLINE
  5
5E
330
1F
100
AcDbEntity
  8
Layer 1
 62
   250
420
  2301728
370
     9
100
AcDbSpline
210
0.0
220
0.0
230
1.0
 70
    11
 71
     3
 72
    17
 73
    13
 74
     0
 42
0.0000000001
 43
0.0000000001
 12
1.0
 22
0.0
 32
0.0
 13
1.0
 23
0.0
 33
0.0
 40
0.0
 40
0.0
 40
0.0
 40
0.0
 40
1.0
 40
1.0
 40
1.0
 40
2.0
 40
2.0
 40
2.0
 40
3.0
 40
3.0
 40
3.0
 40
4.0
 40
4.0
 40
4.0
 40
4.0
 10
6.075084912709666
 20
-10.35911702912601
 30
0.0
 10
5.985338640889577
 20
-10.35911702912601
 30
0.0
 10
5.912584912750273
 20
-10.28636330098677
 30
0.0
 10
5.912584912750273
 20
-10.19661702916661
 30
0.0
 10
5.912584912750273
 20
-10.10687075734659
 30
0.0
 10
5.985338640889577
 20
-10.03411702920718
 30
0.0
 10
6.075084912709666
 20
-10.03411702920718
 30
0.0
 10
6.164831184529756
 20
-10.03411702920718
 30
0.0
 10
6.23758491266906
 20
-10.10687075734659
 30
0.0
 10
6.23758491266906
 20
-10.19661702916661
 30
0.0
 10
6.23758491266906
 20
-10.28636330098677
 30
0.0
 10
6.164831184529756
 20
-10.35911702912601
 30
0.0
 10
6.075084912709666
 20
-10.35911702912601
 30
0.0
  0
SPLINE
  5
5F
330
1F
100
AcDbEntity
  8
Layer 1
 62
   250
420
  2301728
370
     9
100
AcDbSpline
210
0.0
220
0.0
230
1.0
 70
    11
 71
     3
 72
    17
 73
    13
 74
     0
 42
0.0000000001
 43
0.0000000001
 12
1.0
 22
0.0
 32
0.0
 13
1.0
 23
0.0
 33
0.0
 40
0.0
 40
0.0
 40
0.0
 40
0.0
 40
1.0
 40
1.0
 40
1.0
 40
2.0
 40
2.0
 40
2.0
 40
3.0
 40
3.0
 40
3.0
 40
4.0
 40
4.0
 40
4.0
 40
4.0
 10
6.075084912709666
 20
-15.92011702773577
 30
0.0
 10
5.985338640889577
 20
-15.92011702773577
 30
0.0
 10
5.912584912750273
 20
-15.84736329959653
 30
0.0
 10
5.912584912750273
 20
-15.75761702777638
 30
0.0
 10
5.912584912750273
 20
-15.66787075595635
 30
0.0
 10
5.985338640889577
 20
-15.59511702781698
 30
0.0
 10
6.075084912709666
 20
-15.59511702781698
 30
0.0
 10
6.164831184529628
 20
-15.59511702781698
 30
0.0
 10
6.237584912668932
 20
-15.66787075595635
 30
0.0
 10
6.237584912668932
 20
-15.75761702777638
 30
0.0
 10
6.237584912668932
 20
-15.84736329959653
 30
0.0
 10
6.164831184529628
 20
-15.92011702773577
 30
0.0
 10
6.075084912709666
 20
-15.92011702773577
 30
0.0
  0
SPLINE
  5
60
330
1F
100
AcDbEntity
  8
Layer 1
 62
   250
420
  2301728
370
     9
100
AcDbSpline
210
0.0
220
0.0
230
1.0
 70
    11
 71
     3
 72
    17
 73
    13
 74
     0
 42
0.0000000001
 43
0.0000000001
 12
1.0
 22
0.0
 32
0.0
 13
1.0
 23
0.0
 33
0.0
 40
0.0
 40
0.0
 40
0.0
 40
0.0
 40
1.0
 40
1.0
 40
1.0
 40
2.0
 40
2.0
 40
2.0
 40
3.0
 40
3.0
 40
3.0
 40
4.0
 40
4.0
 40
4.0
 40
4.0
 10
8.00508491222708
 20
-10.35911702912601
 30
0.0
 10
7.915338640406991
 20
-10.35911702912601
 30
0.0
 10
7.842584912267719
 20
-10.28636330098677
 30
0.0
 10
7.842584912267719
 20
-10.19661702916661
 30
0.0
 10
7.842584912267719
 20
-10.10687075734659
 30
0.0
 10
7.915338640406991
 20
-10.03411702920718
 30
0.0
 10
8.00508491222708
 20
-10.03411702920718
 30
0.0
 10
8.094831184047202
 20
-10.03411702920718
 30
0.0
 10
8.167584912186507
 20
-10.10687075734659
 30
0.0
 10
8.167584912186507
 20
-10.19661702916661
 30
0.0
 10
8.167584912186507
 20
-10.28636330098677
 30
0.0
 10
8.094831184047202
 20
-10.35911702912601
 30
0.0
 10
8.00508491222708
 20
-10.35911702912601
 30
0.0
  0
SPLINE
  5
61
330
1F
100
AcDbEntity
  8
Layer 1
 62
   250
420
  2301728
370
     9
100
AcDbSpline
210
0.0
220
0.0
230
1.0
 70
    11
 71
     3
 72
    17
 73
    13
 74
     0
 42
0.0000000001
 43
0.0000000001
 12
1.0
 22
0.0
 32
0.0
 13
1.0
 23
0.0
 33
0.0
 40
0.0
 40
0.0
 40
0.0
 40
0.0
 40
1.0
 40
1.0
 40
1.0
 40
2.0
 40
2.0
 40
2.0
 40
3.0
 40
3.0
 40
3.0
 40
4.0
 40
4.0
 40
4.0
 40
4.0
 10
8.00508491222708
 20
-15.92011702773577
 30
0.0
 10
7.915338640406991
 20
-15.92011702773577
 30
0.0
 10
7.842584912267719
 20
-15.84736329959653
 30
0.0
 10
7.842584912267719
 20
-15.75761702777638
 30
0.0
 10
7.842584912267719
 20
-15.66787075595635
 30
0.0
 10
7.915338640406991
 20
-15.59511702781698
 30
0.0
 10
8.00508491222708
 20
-15.59511702781698
 30
0.0
 10
8.094831184047202
 20
-15.59511702781698
 30
0.0
 10
8.167584912186507
 20
-15.66787075595635
 30
0.0
 10
8.167584912186507
 20
-15.75761702777638
 30
0.0
 10
8.167584912186507
 20
-15.84736329959653
 30
0.0
 10
8.094831184047202
 20
-15.92011702773577
 30
0.0
 10
8.00508491222708
 20
-15.92011702773577
 30
0.0
  0
SPLINE
  5
62
330
1F
100
AcDbEntity
  8
Layer 1
 62
   250
420
  2301728
370
     9
100
AcDbSpline
210
0.0
220
0.0
230
1.0
 70
    11
 71
     3
 72
    17
 73
    13
 74
     0
 42
0.0000000001
 43
0.0000000001
 12
1.0
 22
0.0
 32
0.0
 13
1.0
 23
0.0
 33
0.0
 40
0.0
 40
0.0
 40
0.0
 40
0.0
 40
1.0
 40
1.0
 40
1.0
 40
2.0
 40
2.0
 40
2.0
 40
3.0
 40
3.0
 40
3.0
 40
4.0
 40
4.0
 40
4.0
 40
4.0
 10
9.935084911744655
 20
-10.35911702912601
 30
0.0
 10
9.845338639924565
 20
-10.35911702912601
 30
0.0
 10
9.77258491178526
 20
-10.28636330098677
 30
0.0
 10
9.77258491178526
 20
-10.19661702916661
 30
0.0
 10
9.77258491178526
 20
-10.10687075734659
 30
0.0
 10
9.845338639924565
 20
-10.03411702920718
 30
0.0
 10
9.935084911744655
 20
-10.03411702920718
 30
0.0
 10
10.02483118356474
 20
-10.03411702920718
 30
0.0
 10
10.09758491170405
 20
-10.10687075734659
 30
0.0
 10
10.09758491170405
 20
-10.19661702916661
 30
0.0
 10
10.09758491170405
 20
-10.28636330098677
 30
0.0
 10
10.02483118356474
 20
-10.35911702912601
 30
0.0
 10
9.935084911744655
 20
-10.35911702912601
 30
0.0
  0
SPLINE
  5
63
330
1F
100
AcDbEntity
  8
Layer 1
 62
   250
420
  2301728
370
     9
100
AcDbSpline
210
0.0
220
0.0
230
1.0
 70
    11
 71
     3
 72
    17
 73
    13
 74
     0
 42
0.0000000001
 43
0.0000000001
 12
1.0
 22
0.0
 32
0.0
 13
1.0
 23
0.0
 33
0.0
 40
0.0
 40
0.0
 40
0.0
 40
0.0
 40
1.0
 40
1.0
 40
1.0
 40
2.0
 40
2.0
 40
2.0
 40
3.0
 40
3.0
 40
3.0
 40
4.0
 40
4.0
 40
4.0
 40
4.0
 10
9.935084911744655
 20
-15.92011702773577
 30
0.0
 10
9.845338639924565
 20
-15.92011702773577
 30
0.0
 10
9.77258491178526
 20
-15.84736329959653
 30
0.0
 10
9.77258491178526
 20
-15.75761702777638
 30
0.0
 10
9.77258491178526
 20
-15.66787075595635
 30
0.0
 10
9.845338639924565
 20
-15.59511702781698
 30
0.0
 10
9.935084911744655
 20
-15.59511702781698
 30
0.0
 10
10.02483118356474
 20
-15.59511702781698
 30
0.0
 10
10.09758491170405
 20
-15.66787075595635
 30
0.0
 10
10.09758491170405
 20
-15.75761702777638
 30
0.0
 10
10.09758491170405
 20
-15.84736329959653
 30
0.0
 10
10.02483118356474
 20
-15.92011702773577
 30
0.0
 10
9.935084911744655
 20
-15.92011702773577
 30
0.0
  0
SPLINE
  5
64
330
1F
100
AcDbEntity
  8
Layer 1
 62
   250
420
  2301728
370
     9
100
AcDbSpline
210
0.0
220
0.0
230
1.0
 70
    11
 71
     3
 72
    17
 73
    13
 74
     0
 42
0.0000000001
 43
0.0000000001
 12
1.0
 22
0.0
 32
0.0
 13
1.0
 23
0.0
 33
0.0
 40
0.0
 40
0.0
 40
0.0
 40
0.0
 40
1.0
 40
1.0
 40
1.0
 40
2.0
 40
2.0
 40
2.0
 40
3.0
 40
3.0
 40
3.0
 40
4.0
 40
4.0
 40
4.0
 40
4.0
 10
1.666557746534722
 20
-11.47711702774603
 30
0.0
 10
1.666557746534722
 20
-11.56686329956609
 30
0.0
 10
1.593804018395417
 20
-11.63961702770539
 30
0.0
 10
1.504057746575328
 20
-11.63961702770539
 30
0.0
 10
1.414311474755238
 20
-11.63961702770539
 30
0.0
 10
1.341557746615934
 20
-11.56686329956609
 30
0.0
 10
1.341557746615934
 20
-11.47711702774603
 30
0.0
 10
1.341557746615934
 20
-11.38737075592597
 30
0.0
 10
1.414311474755238
 20
-11.31461702778667
 30
0.0
 10
1.504057746575328
 20
-11.31461702778667
 30
0.0
 10
1.593804018395417
 20
-11.31461702778667
 30
0.0
 10
1.666557746534722
 20
-11.38737075592597
 30
0.0
 10
1.666557746534722
 20
-11.47711702774603
 30
0.0
  0
SPLINE
  5
65
330
1F
100
AcDbEntity
  8
Layer 1
 62
   250
420
  2301728
370
     9
100
AcDbSpline
210
0.0
220
0.0
230
1.0
 70
    11
 71
     3
 72
    17
 73
    13
 74
     0
 42
0.0000000001
 43
0.0000000001
 12
1.0
 22
0.0
 32
0.0
 13
1.0
 23
0.0
 33
0.0
 40
0.0
 40
0.0
 40
0.0
 40
0.0
 40
1.0
 40
1.0
 40
1.0
 40
2.0
 40
2.0
 40
2.0
 40
3.0
 40
3.0
 40
3.0
 40
4.0
 40
4.0
 40
4.0
 40
4.0
 10
1.666557746534722
 20
-14.47711702699602
 30
0.0
 10
1.666557746534722
 20
-14.56686329881608
 30
0.0
 10
1.593804018395417
 20
-14.63961702695539
 30
0.0
 10
1.504057746575328
 20
-14.63961702695539
 30
0.0
 10
1.414311474755238
 20
-14.63961702695539
 30
0.0
 10
1.341557746615934
 20
-14.56686329881608
 30
0.0
 10
1.341557746615934
 20
-14.47711702699602
 30
0.0
 10
1.341557746615934
 20
-14.38737075517597
 30
0.0
 10
1.414311474755238
 20
-14.31461702703666
 30
0.0
 10
1.504057746575328
 20
-14.31461702703666
 30
0.0
 10
1.593804018395417
 20
-14.31461702703666
 30
0.0
 10
1.666557746534722
 20
-14.38737075517597
 30
0.0
 10
1.666557746534722
 20
-14.47711702699602
 30
0.0
  0
SPLINE
  5
66
330
1F
100
AcDbEntity
  8
Layer 1
 62
   250
420
  2301728
370
     9
100
AcDbSpline
210
0.0
220
0.0
230
1.0
 70
    11
 71
     3
 72
    17
 73
    13
 74
     0
 42
0.0000000001
 43
0.0000000001
 12
1.0
 22
0.0
 32
0.0
 13
1.0
 23
0.0
 33
0.0
 40
0.0
 40
0.0
 40
0.0
 40
0.0
 40
1.0
 40
1.0
 40
1.0
 40
2.0
 40
2.0
 40
2.0
 40
3.0
 40
3.0
 40
3.0
 40
4.0
 40
4.0
 40
4.0
 40
4.0
 10
4.666557745784681
 20
-11.47711702774603
 30
0.0
 10
4.666557745784681
 20
-11.56686329956609
 30
0.0
 10
4.593804017645377
 20
-11.63961702770539
 30
0.0
 10
4.504057745825415
 20
-11.63961702770539
 30
0.0
 10
4.414311474005326
 20
-11.63961702770539
 30
0.0
 10
4.341557745866021
 20
-11.56686329956609
 30
0.0
 10
4.341557745866021
 20
-11.47711702774603
 30
0.0
 10
4.341557745866021
 20
-11.38737075592597
 30
0.0
 10
4.414311474005326
 20
-11.31461702778667
 30
0.0
 10
4.504057745825415
 20
-11.31461702778667
 30
0.0
 10
4.593804017645377
 20
-11.31461702778667
 30
0.0
 10
4.666557745784681
 20
-11.38737075592597
 30
0.0
 10
4.666557745784681
 20
-11.47711702774603
 30
0.0
  0
SPLINE
  5
67
330
1F
100
AcDbEntity
  8
Layer 1
 62
   250
420
  2301728
370
     9
100
AcDbSpline
210
0.0
220
0.0
230
1.0
 70
    11
 71
     3
 72
    17
 73
    13
 74
     0
 42
0.0000000001
 43
0.0000000001
 12
1.0
 22
0.0
 32
0.0
 13
1.0
 23
0.0
 33
0.0
 40
0.0
 40
0.0
 40
0.0
 40
0.0
 40
1.0
 40
1.0
 40
1.0
 40
2.0
 40
2.0
 40
2.0
 40
3.0
 40
3.0
 40
3.0
 40
4.0
 40
4.0
 40
4.0
 40
4.0
 10
4.666557745784681
 20
-14.47711702699602
 30
0.0
 10
4.666557745784681
 20
-14.56686329881608
 30
0.0
 10
4.593804017645377
 20
-14.63961702695539
 30
0.0
 10
4.504057745825415
 20
-14.63961702695539
 30
0.0
 10
4.414311474005326
 20
-14.63961702695539
 30
0.0
 10
4.341557745866021
 20
-14.56686329881608
 30
0.0
 10
4.341557745866021
 20
-14.47711702699602
 30
0.0
 10
4.341557745866021
 20
-14.38737075517597
 30
0.0
 10
4.414311474005326
 20
-14.31461702703666
 30
0.0
 10
4.504057745825415
 20
-14.31461702703666
 30
0.0
 10
4.593804017645377
 20
-14.31461702703666
 30
0.0
 10
4.666557745784681
 20
-14.38737075517597
 30
0.0
 10
4.666557745784681
 20
-14.47711702699602
 30
0.0
  0
SPLINE
  5
68
330
1F
100
AcDbEntity
  8
Layer 1
 62
   250
420
  2301728
370
     9
100
AcDbSpline
210
0.0
220
0.0
230
1.0
 70
    11
 71
     3
 72
    17
 73
    13
 74
     0
 42
0.0000000001
 43
0.0000000001
 12
1.0
 22
0.0
 32
0.0
 13
1.0
 23
0.0
 33
0.0
 40
0.0
 40
0.0
 40
0.0
 40
0.0
 40
1.0
 40
1.0
 40
1.0
 40
2.0
 40
2.0
 40
2.0
 40
3.0
 40
3.0
 40
3.0
 40
4.0
 40
4.0
 40
4.0
 40
4.0
 10
3.166557746159573
 20
-11.47711702774603
 30
0.0
 10
3.166557746159573
 20
-11.56686329956609
 30
0.0
 10
3.093804018020269
 20
-11.63961702770539
 30
0.0
 10
3.004057746200308
 20
-11.63961702770539
 30
0.0
 10
2.914311474380218
 20
-11.63961702770539
 30
0.0
 10
2.841557746240913
 20
-11.56686329956609
 30
0.0
 10
2.841557746240913
 20
-11.47711702774603
 30
0.0
 10
2.841557746240913
 20
-11.38737075592597
 30
0.0
 10
2.914311474380218
 20
-11.31461702778667
 30
0.0
 10
3.004057746200308
 20
-11.31461702778667
 30
0.0
 10
3.093804018020269
 20
-11.31461702778667
 30
0.0
 10
3.166557746159573
 20
-11.38737075592597
 30
0.0
 10
3.166557746159573
 20
-11.47711702774603
 30
0.0
  0
SPLINE
  5
69
330
1F
100
AcDbEntity
  8
Layer 1
 62
   250
420
  2301728
370
     9
100
AcDbSpline
210
0.0
220
0.0
230
1.0
 70
    11
 71
     3
 72
    17
 73
    13
 74
     0
 42
0.0000000001
 43
0.0000000001
 12
1.0
 22
0.0
 32
0.0
 13
1.0
 23
0.0
 33
0.0
 40
0.0
 40
0.0
 40
0.0
 40
0.0
 40
1.0
 40
1.0
 40
1.0
 40
2.0
 40
2.0
 40
2.0
 40
3.0
 40
3.0
 40
3.0
 40
4.0
 40
4.0
 40
4.0
 40
4.0
 10
3.166557746159573
 20
-14.47711702699602
 30
0.0
 10
3.166557746159573
 20
-14.56686329881608
 30
0.0
 10
3.093804018020269
 20
-14.63961702695539
 30
0.0
 10
3.004057746200308
 20
-14.63961702695539
 30
0.0
 10
2.914311474380218
 20
-14.63961702695539
 30
0.0
 10
2.841557746240913
 20
-14.56686329881608
 30
0.0
 10
2.841557746240913
 20
-14.47711702699602
 30
0.0
 10
2.841557746240913
 20
-14.38737075517597
 30
0.0
 10
2.914311474380218
 20
-14.31461702703666
 30
0.0
 10
3.004057746200308
 20
-14.31461702703666
 30
0.0
 10
3.093804018020269
 20
-14.31461702703666
 30
0.0
 10
3.166557746159573
 20
-14.38737075517597
 30
0.0
 10
3.166557746159573
 20
-14.47711702699602
 30
0.0
  0
SPLINE
  5
6A
330
1F
100
AcDbEntity
  8
Layer 1
 62
   250
420
  2301728
370
     9
100
AcDbSpline
210
0.0
220
0.0
230
1.0
 70
    11
 71
     3
 72
    17
 73
    13
 74
     0
 42
0.0000000001
 43
0.0000000001
 12
1.0
 22
0.0
 32
0.0
 13
1.0
 23
0.0
 33
0.0
 40
0.0
 40
0.0
 40
0.0
 40
0.0
 40
1.0
 40
1.0
 40
1.0
 40
2.0
 40
2.0
 40
2.0
 40
3.0
 40
3.0
 40
3.0
 40
4.0
 40
4.0
 40
4.0
 40
4.0
 10
14.3436120779196
 20
-14.47711702809657
 30
0.0
 10
14.3436120779196
 20
-14.38737075627654
 30
0.0
 10
14.4163658060589
 20
-14.31461702813724
 30
0.0
 10
14.50611207787899
 20
-14.31461702813724
 30
0.0
 10
14.59585834969908
 20
-14.31461702813724
 30
0.0
 10
14.66861207783839
 20
-14.38737075627654
 30
0.0
 10
14.66861207783839
 20
-14.47711702809657
 30
0.0
 10
14.66861207783839
 20
-14.56686329991666
 30
0.0
 10
14.59585834969908
 20
-14.639617028056
 30
0.0
 10
14.50611207787899
 20
-14.639617028056
 30
0.0
 10
14.4163658060589
 20
-14.639617028056
 30
0.0
 10
14.3436120779196
 20
-14.56686329991666
 30
0.0
 10
14.3436120779196
 20
-14.47711702809657
 30
0.0
  0
SPLINE
  5
6B
330
1F
100
AcDbEntity
  8
Layer 1
 62
   250
420
  2301728
370
     9
100
AcDbSpline
210
0.0
220
0.0
230
1.0
 70
    11
 71
     3
 72
    17
 73
    13
 74
     0
 42
0.0000000001
 43
0.0000000001
 12
1.0
 22
0.0
 32
0.0
 13
1.0
 23
0.0
 33
0.0
 40
0.0
 40
0.0
 40
0.0
 40
0.0
 40
1.0
 40
1.0
 40
1.0
 40
2.0
 40
2.0
 40
2.0
 40
3.0
 40
3.0
 40
3.0
 40
4.0
 40
4.0
 40
4.0
 40
4.0
 10
14.3436120779196
 20
-11.47711702884664
 30
0.0
 10
14.3436120779196
 20
-11.38737075702655
 30
0.0
 10
14.4163658060589
 20
-11.31461702888722
 30
0.0
 10
14.50611207787899
 20
-11.31461702888722
 30
0.0
 10
14.59585834969908
 20
-11.31461702888722
 30
0.0
 10
14.66861207783839
 20
-11.38737075702655
 30
0.0
 10
14.66861207783839
 20
-11.47711702884664
 30
0.0
 10
14.66861207783839
 20
-11.56686330066667
 30
0.0
 10
14.59585834969908
 20
-11.639617028806
 30
0.0
 10
14.50611207787899
 20
-11.639617028806
 30
0.0
 10
14.4163658060589
 20
-11.639617028806
 30
0.0
 10
14.3436120779196
 20
-11.56686330066667
 30
0.0
 10
14.3436120779196
 20
-11.47711702884664
 30
0.0
  0
SPLINE
  5
6C
330
1F
100
AcDbEntity
  8
Layer 1
 62
   250
420
  2301728
370
     9
100
AcDbSpline
210
0.0
220
0.0
230
1.0
 70
    11
 71
     3
 72
    17
 73
    13
 74
     0
 42
0.0000000001
 43
0.0000000001
 12
1.0
 22
0.0
 32
0.0
 13
1.0
 23
0.0
 33
0.0
 40
0.0
 40
0.0
 40
0.0
 40
0.0
 40
1.0
 40
1.0
 40
1.0
 40
2.0
 40
2.0
 40
2.0
 40
3.0
 40
3.0
 40
3.0
 40
4.0
 40
4.0
 40
4.0
 40
4.0
 10
11.34361207866964
 20
-14.47711702809657
 30
0.0
 10
11.34361207866964
 20
-14.38737075627654
 30
0.0
 10
11.41636580680894
 20
-14.31461702813724
 30
0.0
 10
11.50611207862903
 20
-14.31461702813724
 30
0.0
 10
11.59585835044912
 20
-14.31461702813724
 30
0.0
 10
11.66861207858843
 20
-14.38737075627654
 30
0.0
 10
11.66861207858843
 20
-14.47711702809657
 30
0.0
 10
11.66861207858843
 20
-14.56686329991666
 30
0.0
 10
11.59585835044912
 20
-14.639617028056
 30
0.0
 10
11.50611207862903
 20
-14.639617028056
 30
0.0
 10
11.41636580680894
 20
-14.639617028056
 30
0.0
 10
11.34361207866964
 20
-14.56686329991666
 30
0.0
 10
11.34361207866964
 20
-14.47711702809657
 30
0.0
  0
SPLINE
  5
6D
330
1F
100
AcDbEntity
  8
Layer 1
 62
   250
420
  2301728
370
     9
100
AcDbSpline
210
0.0
220
0.0
230
1.0
 70
    11
 71
     3
 72
    17
 73
    13
 74
     0
 42
0.0000000001
 43
0.0000000001
 12
1.0
 22
0.0
 32
0.0
 13
1.0
 23
0.0
 33
0.0
 40
0.0
 40
0.0
 40
0.0
 40
0.0
 40
1.0
 40
1.0
 40
1.0
 40
2.0
 40
2.0
 40
2.0
 40
3.0
 40
3.0
 40
3.0
 40
4.0
 40
4.0
 40
4.0
 40
4.0
 10
11.34361207866964
 20
-11.47711702884664
 30
0.0
 10
11.34361207866964
 20
-11.38737075702655
 30
0.0
 10
11.41636580680894
 20
-11.31461702888722
 30
0.0
 10
11.50611207862903
 20
-11.31461702888722
 30
0.0
 10
11.59585835044912
 20
-11.31461702888722
 30
0.0
 10
11.66861207858843
 20
-11.38737075702655
 30
0.0
 10
11.66861207858843
 20
-11.47711702884664
 30
0.0
 10
11.66861207858843
 20
-11.56686330066667
 30
0.0
 10
11.59585835044912
 20
-11.639617028806
 30
0.0
 10
11.50611207862903
 20
-11.639617028806
 30
0.0
 10
11.41636580680894
 20
-11.639617028806
 30
0.0
 10
11.34361207866964
 20
-11.56686330066667
 30
0.0
 10
11.34361207866964
 20
-11.47711702884664
 30
0.0
  0
SPLINE
  5
6E
330
1F
100
AcDbEntity
  8
Layer 1
 62
   250
420
  2301728
370
     9
100
AcDbSpline
210
0.0
220
0.0
230
1.0
 70
    11
 71
     3
 72
    17
 73
    13
 74
     0
 42
0.0000000001
 43
0.0000000001
 12
1.0
 22
0.0
 32
0.0
 13
1.0
 23
0.0
 33
0.0
 40
0.0
 40
0.0
 40
0.0
 40
0.0
 40
1.0
 40
1.0
 40
1.0
 40
2.0
 40
2.0
 40
2.0
 40
3.0
 40
3.0
 40
3.0
 40
4.0
 40
4.0
 40
4.0
 40
4.0
 10
12.84361207829462
 20
-14.47711702809657
 30
0.0
 10
12.84361207829462
 20
-14.38737075627654
 30
0.0
 10
12.91636580643392
 20
-14.31461702813724
 30
0.0
 10
13.00611207825401
 20
-14.31461702813724
 30
0.0
 10
13.09585835007397
 20
-14.31461702813724
 30
0.0
 10
13.16861207821341
 20
-14.38737075627654
 30
0.0
 10
13.16861207821341
 20
-14.47711702809657
 30
0.0
 10
13.16861207821341
 20
-14.56686329991666
 30
0.0
 10
13.09585835007397
 20
-14.639617028056
 30
0.0
 10
13.00611207825401
 20
-14.639617028056
 30
0.0
 10
12.91636580643392
 20
-14.639617028056
 30
0.0
 10
12.84361207829462
 20
-14.56686329991666
 30
0.0
 10
12.84361207829462
 20
-14.47711702809657
 30
0.0
  0
SPLINE
  5
6F
330
1F
100
AcDbEntity
  8
Layer 1
 62
   250
420
  2301728
370
     9
100
AcDbSpline
210
0.0
220
0.0
230
1.0
 70
    11
 71
     3
 72
    17
 73
    13
 74
     0
 42
0.0000000001
 43
0.0000000001
 12
1.0
 22
0.0
 32
0.0
 13
1.0
 23
0.0
 33
0.0
 40
0.0
 40
0.0
 40
0.0
 40
0.0
 40
1.0
 40
1.0
 40
1.0
 40
2.0
 40
2.0
 40
2.0
 40
3.0
 40
3.0
 40
3.0
 40
4.0
 40
4.0
 40
4.0
 40
4.0
 10
12.84361207829462
 20
-11.47711702884664
 30
0.0
 10
12.84361207829462
 20
-11.38737075702655
 30
0.0
 10
12.91636580643392
 20
-11.31461702888722
 30
0.0
 10
13.00611207825401
 20
-11.31461702888722
 30
0.0
 10
13.09585835007397
 20
-11.31461702888722
 30
0.0
 10
13.16861207821341
 20
-11.38737075702655
 30
0.0
 10
13.16861207821341
 20
-11.47711702884664
 30
0.0
 10
13.16861207821341
 20
-11.56686330066667
 30
0.0
 10
13.09585835007397
 20
-11.639617028806
 30
0.0
 10
13.00611207825401
 20
-11.639617028806
 30
0.0
 10
12.91636580643392
 20
-11.639617028806
 30
0.0
 10
12.84361207829462
 20
-11.56686330066667
 30
0.0
 10
12.84361207829462
 20
-11.47711702884664
 30
0.0
  0
SPLINE
  5
70
330
1F
100
AcDbEntity
  8
Layer 1
 62
   250
420
  2301728
370
     9
100
AcDbSpline
210
0.0
220
0.0
230
1.0
 70
    11
 71
     3
 72
    17
 73
    13
 74
     0
 42
0.0000000001
 43
0.0000000001
 12
1.0
 22
0.0
 32
0.0
 13
1.0
 23
0.0
 33
0.0
 40
0.0
 40
0.0
 40
0.0
 40
0.0
 40
1.0
 40
1.0
 40
1.0
 40
2.0
 40
2.0
 40
2.0
 40
3.0
 40
3.0
 40
3.0
 40
4.0
 40
4.0
 40
4.0
 40
4.0
 10
14.3436120779196
 20
-10.09211702919287
 30
0.0
 10
14.3436120779196
 20
-10.00237075737281
 30
0.0
 10
14.4163658060589
 20
-9.929617029233508
 30
0.0
 10
14.50611207787899
 20
-9.929617029233508
 30
0.0
 10
14.59585834969908
 20
-9.929617029233508
 30
0.0
 10
14.66861207783839
 20
-10.00237075737281
 30
0.0
 10
14.66861207783839
 20
-10.09211702919287
 30
0.0
 10
14.66861207783839
 20
-10.1818633010129
 30
0.0
 10
14.59585834969908
 20
-10.25461702915223
 30
0.0
 10
14.50611207787899
 20
-10.25461702915223
 30
0.0
 10
14.4163658060589
 20
-10.25461702915223
 30
0.0
 10
14.3436120779196
 20
-10.1818633010129
 30
0.0
 10
14.3436120779196
 20
-10.09211702919287
 30
0.0
  0
SPLINE
  5
71
330
1F
100
AcDbEntity
  8
Layer 1
 62
   250
420
  2301728
370
     9
100
AcDbSpline
210
0.0
220
0.0
230
1.0
 70
    11
 71
     3
 72
    17
 73
    13
 74
     0
 42
0.0000000001
 43
0.0000000001
 12
1.0
 22
0.0
 32
0.0
 13
1.0
 23
0.0
 33
0.0
 40
0.0
 40
0.0
 40
0.0
 40
0.0
 40
1.0
 40
1.0
 40
1.0
 40
2.0
 40
2.0
 40
2.0
 40
3.0
 40
3.0
 40
3.0
 40
4.0
 40
4.0
 40
4.0
 40
4.0
 10
1.341557746615902
 20
-10.09211702919287
 30
0.0
 10
1.341557746615902
 20
-10.00237075737281
 30
0.0
 10
1.414311474755206
 20
-9.929617029233508
 30
0.0
 10
1.504057746575296
 20
-9.929617029233508
 30
0.0
 10
1.593804018395385
 20
-9.929617029233508
 30
0.0
 10
1.66655774653469
 20
-10.00237075737281
 30
0.0
 10
1.66655774653469
 20
-10.09211702919287
 30
0.0
 10
1.66655774653469
 20
-10.1818633010129
 30
0.0
 10
1.593804018395385
 20
-10.25461702915223
 30
0.0
 10
1.504057746575296
 20
-10.25461702915223
 30
0.0
 10
1.414311474755206
 20
-10.25461702915223
 30
0.0
 10
1.341557746615902
 20
-10.1818633010129
 30
0.0
 10
1.341557746615902
 20
-10.09211702919287
 30
0.0
  0
SPLINE
  5
72
330
1F
100
AcDbEntity
  8
Layer 1
 62
   250
420
  2301728
370
     9
100
AcDbSpline
210
0.0
220
0.0
230
1.0
 70
    11
 71
     3
 72
    17
 73
    13
 74
     0
 42
0.0000000001
 43
0.0000000001
 12
1.0
 22
0.0
 32
0.0
 13
1.0
 23
0.0
 33
0.0
 40
0.0
 40
0.0
 40
0.0
 40
0.0
 40
1.0
 40
1.0
 40
1.0
 40
2.0
 40
2.0
 40
2.0
 40
3.0
 40
3.0
 40
3.0
 40
4.0
 40
4.0
 40
4.0
 40
4.0
 10
14.3436120779196
 20
-15.86211702761497
 30
0.0
 10
14.3436120779196
 20
-15.77237075579492
 30
0.0
 10
14.4163658060589
 20
-15.69961702765561
 30
0.0
 10
14.50611207787899
 20
-15.69961702765561
 30
0.0
 10
14.59585834969908
 20
-15.69961702765561
 30
0.0
 10
14.66861207783839
 20
-15.77237075579492
 30
0.0
 10
14.66861207783839
 20
-15.86211702761497
 30
0.0
 10
14.66861207783839
 20
-15.95186329943503
 30
0.0
 10
14.59585834969908
 20
-16.02461702757434
 30
0.0
 10
14.50611207787899
 20
-16.02461702757434
 30
0.0
 10
14.4163658060589
 20
-16.02461702757434
 30
0.0
 10
14.3436120779196
 20
-15.95186329943503
 30
0.0
 10
14.3436120779196
 20
-15.86211702761497
 30
0.0
  0
SPLINE
  5
73
330
1F
100
AcDbEntity
  8
Layer 1
 62
   250
420
  2301728
370
     9
100
AcDbSpline
210
0.0
220
0.0
230
1.0
 70
    11
 71
     3
 72
    17
 73
    13
 74
     0
 42
0.0000000001
 43
0.0000000001
 12
1.0
 22
0.0
 32
0.0
 13
1.0
 23
0.0
 33
0.0
 40
0.0
 40
0.0
 40
0.0
 40
0.0
 40
1.0
 40
1.0
 40
1.0
 40
2.0
 40
2.0
 40
2.0
 40
3.0
 40
3.0
 40
3.0
 40
4.0
 40
4.0
 40
4.0
 40
4.0
 10
1.341557746615902
 20
-15.86211702761497
 30
0.0
 10
1.341557746615902
 20
-15.77237075579492
 30
0.0
 10
1.414311474755206
 20
-15.69961702765561
 30
0.0
 10
1.504057746575296
 20
-15.69961702765561
 30
0.0
 10
1.593804018395385
 20
-15.69961702765561
 30
0.0
 10
1.66655774653469
 20
-15.77237075579492
 30
0.0
 10
1.66655774653469
 20
-15.86211702761497
 30
0.0
 10
1.66655774653469
 20
-15.95186329943503
 30
0.0
 10
1.593804018395385
 20
-16.02461702757434
 30
0.0
 10
1.504057746575296
 20
-16.02461702757434
 30
0.0
 10
1.414311474755206
 20
-16.02461702757434
 30
0.0
 10
1.341557746615902
 20
-15.95186329943503
 30
0.0
 10
1.341557746615902
 20
-15.86211702761497
 30
0.0
  0
SPLINE
  5
74
330
1F
100
AcDbEntity
  8
Layer 1
 62
   250
420
  2301728
370
     9
100
AcDbSpline
210
0.0
220
0.0
230
1.0
 70
    11
 71
     3
 72
    29
 73
    25
 74
     0
 42
0.0000000001
 43
0.0000000001
 12
1.0
 22
0.0
 32
0.0
 13
1.0
 23
0.0
 33
0.0
 40
0.0
 40
0.0
 40
0.0
 40
0.0
 40
1.0
 40
1.0
 40
1.0
 40
2.0
 40
2.0
 40
2.0
 40
3.0
 40
3.0
 40
3.0
 40
4.0
 40
4.0
 40
4.0
 40
5.0
 40
5.0
 40
5.0
 40
6.0
 40
6.0
 40
6.0
 40
7.0
 40
7.0
 40
7.0
 40
8.0
 40
8.0
 40
8.0
 40
8.0
 10
4.627071491739418
 20
-10.25461702922969
 30
0.0
 10
4.627071491739418
 20
-10.25461702922969
 30
0.0
 10
2.952071167317003
 20
-10.25461702922452
 30
0.0
 10
2.952071167317003
 20
-10.25461702922452
 30
0.0
 10
2.862324985299229
 20
-10.25461702922423
 30
0.0
 10
2.78957132996652
 20
-10.18186337389627
 30
0.0
 10
2.78957132996036
 20
-10.0921171918785
 30
0.0
 10
2.78957132996036
 20
-10.0921171918785
 30
0.0
 10
2.789571329931932
 20
-9.677116867096037
 30
0.0
 10
2.789571329931932
 20
-9.677116867096037
 30
0.0
 10
2.789571329925772
 20
-9.587370684932116
 30
0.0
 10
2.862324985381495
 20
-9.514617029483388
 30
0.0
 10
2.952071167545416
 20
-9.514617029498115
 30
0.0
 10
2.952071167545416
 20
-9.514617029498115
 30
0.0
 10
4.627071492098288
 20
-9.514617029773307
 30
0.0
 10
4.627071492098288
 20
-9.514617029773307
 30
0.0
 10
4.716817674083272
 20
-9.514617029788035
 30
0.0
 10
4.789571329379339
 20
-9.587370685097898
 30
0.0
 10
4.789571329377093
 20
-9.677116867082882
 30
0.0
 10
4.789571329377093
 20
-9.677116867082882
 30
0.0
 10
4.789571329366666
 20
-10.09211719160703
 30
0.0
 10
4.789571329366666
 20
-10.09211719160703
 30
0.0
 10
4.78957132936442
 20
-10.18186337377688
 30
0.0
 10
4.716817673909275
 20
-10.25461702922997
 30
0.0
 10
4.627071491739418
 20
-10.25461702922969
 30
0.0
  0
SPLINE
  5
75
330
1F
100
AcDbEntity
  8
Layer 1
 62
   250
420
  2301728
370
     9
100
AcDbSpline
210
0.0
220
0.0
230
1.0
 70
    11
 71
     3
 72
    29
 73
    25
 74
     0
 42
0.0000000001
 43
0.0000000001
 12
1.0
 22
0.0
 32
0.0
 13
1.0
 23
0.0
 33
0.0
 40
0.0
 40
0.0
 40
0.0
 40
0.0
 40
1.0
 40
1.0
 40
1.0
 40
2.0
 40
2.0
 40
2.0
 40
3.0
 40
3.0
 40
3.0
 40
4.0
 40
4.0
 40
4.0
 40
5.0
 40
5.0
 40
5.0
 40
6.0
 40
6.0
 40
6.0
 40
7.0
 40
7.0
 40
7.0
 40
8.0
 40
8.0
 40
8.0
 40
8.0
 10
11.38309833294213
 20
-10.25461702916799
 30
0.0
 10
11.38309833294213
 20
-10.25461702916799
 30
0.0
 10
13.05809865731411
 20
-10.25461702914598
 30
0.0
 10
13.05809865731411
 20
-10.25461702914598
 30
0.0
 10
13.14784483913206
 20
-10.25461702914482
 30
0.0
 10
13.22059849430877
 20
-10.18186337399124
 30
0.0
 10
13.22059849433867
 20
-10.09211719217339
 30
0.0
 10
13.22059849433867
 20
-10.09211719217339
 30
0.0
 10
13.22059849447651
 20
-9.677116866754622
 30
0.0
 10
13.22059849447651
 20
-9.677116866754622
 30
0.0
 10
13.22059849450641
 20
-9.587370684805638
 30
0.0
 10
13.14784483923023
 20
-9.514617029519291
 30
0.0
 10
13.05809865728112
 20
-9.514617029536648
 30
0.0
 10
13.05809865728112
 20
-9.514617029536648
 30
0.0
 10
11.38309833193287
 20
-9.51461702986058
 30
0.0
 10
11.38309833193287
 20
-9.51461702986058
 30
0.0
 10
11.29335215007898
 20
-9.514617029877936
 30
0.0
 10
11.22059849489765
 20
-9.587370685095845
 30
0.0
 10
11.22059849492537
 20
-9.677116866949826
 30
0.0
 10
11.22059849492537
 20
-9.677116866949826
 30
0.0
 10
11.22059849505397
 20
-10.09211719133215
 30
0.0
 10
11.22059849505397
 20
-10.09211719133215
 30
0.0
 10
11.22059849508169
 20
-10.18186337362782
 30
0.0
 10
11.2933521506465
 20
-10.25461702916911
 30
0.0
 10
11.38309833294213
 20
-10.25461702916799
 30
0.0
  0
SPLINE
  5
76
330
1F
100
AcDbEntity
  8
Layer 1
 62
   250
420
  2301728
370
     9
100
AcDbSpline
210
0.0
220
0.0
230
1.0
 70
    11
 71
     3
 72
    29
 73
    25
 74
     0
 42
0.0000000001
 43
0.0000000001
 12
1.0
 22
0.0
 32
0.0
 13
1.0
 23
0.0
 33
0.0
 40
0.0
 40
0.0
 40
0.0
 40
0.0
 40
1.0
 40
1.0
 40
1.0
 40
2.0
 40
2.0
 40
2.0
 40
3.0
 40
3.0
 40
3.0
 40
4.0
 40
4.0
 40
4.0
 40
5.0
 40
5.0
 40
5.0
 40
6.0
 40
6.0
 40
6.0
 40
7.0
 40
7.0
 40
7.0
 40
8.0
 40
8.0
 40
8.0
 40
8.0
 10
2.952071167895688
 20
-16.43961702728692
 30
0.0
 10
2.952071167895688
 20
-16.43961702728692
 30
0.0
 10
4.627071492267665
 20
-16.43961702726494
 30
0.0
 10
4.627071492267665
 20
-16.43961702726494
 30
0.0
 10
4.71681767408555
 20
-16.43961702726379
 30
0.0
 10
4.789571329262325
 20
-16.36686337211021
 30
0.0
 10
4.789571329292165
 20
-16.27711719029235
 30
0.0
 10
4.789571329292165
 20
-16.27711719029235
 30
0.0
 10
4.789571329430066
 20
-15.86211686487359
 30
0.0
 10
4.789571329430066
 20
-15.86211686487359
 30
0.0
 10
4.789571329459905
 20
-15.7723706829246
 30
0.0
 10
4.716817674183729
 20
-15.69961702763826
 30
0.0
 10
4.627071492234681
 20
-15.69961702765561
 30
0.0
 10
4.627071492234681
 20
-15.69961702765561
 30
0.0
 10
2.952071166886423
 20
-15.69961702797954
 30
0.0
 10
2.952071166886423
 20
-15.69961702797954
 30
0.0
 10
2.862324985032475
 20
-15.6996170279969
 30
0.0
 10
2.789571329851142
 20
-15.77237068321481
 30
0.0
 10
2.789571329878928
 20
-15.86211686506879
 30
0.0
 10
2.789571329878928
 20
-15.86211686506879
 30
0.0
 10
2.78957133000746
 20
-16.27711718945112
 30
0.0
 10
2.78957133000746
 20
-16.27711718945112
 30
0.0
 10
2.789571330035246
 20
-16.36686337174678
 30
0.0
 10
2.862324985600058
 20
-16.43961702728811
 30
0.0
 10
2.952071167895688
 20
-16.43961702728692
 30
0.0
  0
SPLINE
  5
77
330
1F
100
AcDbEntity
  8
Layer 1
 62
   250
420
  2301728
370
     9
100
AcDbSpline
210
0.0
220
0.0
230
1.0
 70
    11
 71
     3
 72
    29
 73
    25
 74
     0
 42
0.0000000001
 43
0.0000000001
 12
1.0
 22
0.0
 32
0.0
 13
1.0
 23
0.0
 33
0.0
 40
0.0
 40
0.0
 40
0.0
 40
0.0
 40
1.0
 40
1.0
 40
1.0
 40
2.0
 40
2.0
 40
2.0
 40
3.0
 40
3.0
 40
3.0
 40
4.0
 40
4.0
 40
4.0
 40
5.0
 40
5.0
 40
5.0
 40
6.0
 40
6.0
 40
6.0
 40
7.0
 40
7.0
 40
7.0
 40
8.0
 40
8.0
 40
8.0
 40
8.0
 10
6.075084750687429
 20
-9.514617029626358
 30
0.0
 10
6.075084750687429
 20
-9.514617029626358
 30
0.0
 10
9.935085074706821
 20
-9.514617029547942
 30
0.0
 10
9.935085074706821
 20
-9.514617029547942
 30
0.0
 10
10.02483125652336
 20
-9.514617029546114
 30
0.0
 10
10.0975849117455
 20
-9.44186337448173
 30
0.0
 10
10.09758491194173
 20
-9.352117192665162
 30
0.0
 10
10.09758491194173
 20
-9.352117192665162
 30
0.0
 10
10.09758491194173
 20
-9.352116867287044
 30
0.0
 10
10.09758491194173
 20
-9.352116867287044
 30
0.0
 10
10.09758491213809
 20
-9.262370685114139
 30
0.0
 10
10.02483125673525
 20
-9.189617029553723
 30
0.0
 10
9.935085074562311
 20
-9.18961702955568
 30
0.0
 10
9.935085074562311
 20
-9.18961702955568
 30
0.0
 10
6.075084750132423
 20
-9.189617029640416
 30
0.0
 10
6.075084750132423
 20
-9.189617029640416
 30
0.0
 10
5.985338568321982
 20
-9.189617029642406
 30
0.0
 10
5.912584913127142
 20
-9.262370684743846
 30
0.0
 10
5.912584913009968
 20
-9.352116866554287
 30
0.0
 10
5.912584913009968
 20
-9.352116866554287
 30
0.0
 10
5.912584913009968
 20
-9.352117191740025
 30
0.0
 10
5.912584913009968
 20
-9.352117191740025
 30
0.0
 10
5.912584912892794
 20
-9.441863374021601
 30
0.0
 10
5.985338568405853
 20
-9.514617029628187
 30
0.0
 10
6.075084750687429
 20
-9.514617029626358
 30
0.0
  0
SPLINE
  5
78
330
1F
100
AcDbEntity
  8
Layer 1
 62
   250
420
  2301728
370
     9
100
AcDbSpline
210
0.0
220
0.0
230
1.0
 70
    11
 71
     3
 72
    29
 73
    25
 74
     0
 42
0.0000000001
 43
0.0000000001
 12
1.0
 22
0.0
 32
0.0
 13
1.0
 23
0.0
 33
0.0
 40
0.0
 40
0.0
 40
0.0
 40
0.0
 40
1.0
 40
1.0
 40
1.0
 40
2.0
 40
2.0
 40
2.0
 40
3.0
 40
3.0
 40
3.0
 40
4.0
 40
4.0
 40
4.0
 40
5.0
 40
5.0
 40
5.0
 40
6.0
 40
6.0
 40
6.0
 40
7.0
 40
7.0
 40
7.0
 40
8.0
 40
8.0
 40
8.0
 40
8.0
 10
6.075084750687429
 20
-16.76461702760067
 30
0.0
 10
6.075084750687429
 20
-16.76461702760067
 30
0.0
 10
9.935085074706821
 20
-16.76461702752226
 30
0.0
 10
9.935085074706821
 20
-16.76461702752226
 30
0.0
 10
10.02483125652336
 20
-16.76461702752043
 30
0.0
 10
10.0975849117455
 20
-16.69186337245605
 30
0.0
 10
10.09758491194173
 20
-16.60211719063948
 30
0.0
 10
10.09758491194173
 20
-16.60211719063948
 30
0.0
 10
10.09758491194173
 20
-16.60211686526136
 30
0.0
 10
10.09758491194173
 20
-16.60211686526136
 30
0.0
 10
10.09758491213809
 20
-16.51237068308845
 30
0.0
 10
10.02483125673525
 20
-16.43961702752804
 30
0.0
 10
9.935085074562311
 20
-16.43961702752999
 30
0.0
 10
9.935085074562311
 20
-16.43961702752999
 30
0.0
 10
6.075084750132423
 20
-16.43961702761473
 30
0.0
 10
6.075084750132423
 20
-16.43961702761473
 30
0.0
 10
5.985338568321982
 20
-16.43961702761669
 30
0.0
 10
5.912584913127142
 20
-16.51237068271816
 30
0.0
 10
5.912584913009968
 20
-16.6021168645286
 30
0.0
 10
5.912584913009968
 20
-16.6021168645286
 30
0.0
 10
5.912584913009968
 20
-16.60211718971434
 30
0.0
 10
5.912584913009968
 20
-16.60211718971434
 30
0.0
 10
5.912584912892794
 20
-16.69186337199591
 30
0.0
 10
5.985338568405853
 20
-16.7646170276025
 30
0.0
 10
6.075084750687429
 20
-16.76461702760067
 30
0.0
  0
SPLINE
  5
79
330
1F
100
AcDbEntity
  8
Layer 1
 62
   250
420
  2301728
370
     9
100
AcDbSpline
210
0.0
220
0.0
230
1.0
 70
    11
 71
     3
 72
    29
 73
    25
 74
     0
 42
0.0000000001
 43
0.0000000001
 12
1.0
 22
0.0
 32
0.0
 13
1.0
 23
0.0
 33
0.0
 40
0.0
 40
0.0
 40
0.0
 40
0.0
 40
1.0
 40
1.0
 40
1.0
 40
2.0
 40
2.0
 40
2.0
 40
3.0
 40
3.0
 40
3.0
 40
4.0
 40
4.0
 40
4.0
 40
5.0
 40
5.0
 40
5.0
 40
6.0
 40
6.0
 40
6.0
 40
7.0
 40
7.0
 40
7.0
 40
8.0
 40
8.0
 40
8.0
 40
8.0
 10
15.20502577289122
 20
-25.32649862082578
 30
0.0
 10
15.20502577289122
 20
-25.32649862082578
 30
0.0
 10
0.8041168842862232
 20
-25.32649862082578
 30
0.0
 10
0.8041168842862232
 20
-25.32649862082578
 30
0.0
 10
0.6386824430304424
 20
-25.32649862082578
 30
0.0
 10
0.5045713304637404
 20
-25.19238750825905
 30
0.0
 10
0.5045713304637404
 20
-25.0269530670033
 30
0.0
 10
0.5045713304637404
 20
-25.0269530670033
 30
0.0
 10
0.5045713304637404
 20
-17.62604417664829
 30
0.0
 10
0.5045713304637404
 20
-17.62604417664829
 30
0.0
 10
0.5045713304637404
 20
-17.46060973539254
 30
0.0
 10
0.6386824430304424
 20
-17.32649862282581
 30
0.0
 10
0.8041168842862232
 20
-17.32649862282581
 30
0.0
 10
0.8041168842862232
 20
-17.32649862282581
 30
0.0
 10
15.20502577289122
 20
-17.32649862282581
 30
0.0
 10
15.20502577289122
 20
-17.32649862282581
 30
0.0
 10
15.37046021414696
 20
-17.32649862282581
 30
0.0
 10
15.5045713267137
 20
-17.46060973539254
 30
0.0
 10
15.5045713267137
 20
-17.62604417664829
 30
0.0
 10
15.5045713267137
 20
-17.62604417664829
 30
0.0
 10
15.5045713267137
 20
-25.0269530670033
 30
0.0
 10
15.5045713267137
 20
-25.0269530670033
 30
0.0
 10
15.5045713267137
 20
-25.19238750825905
 30
0.0
 10
15.37046021414696
 20
-25.32649862082578
 30
0.0
 10
15.20502577289122
 20
-25.32649862082578
 30
0.0
  0
SPLINE
  5
7A
330
1F
100
AcDbEntity
  8
Layer 1
 62
   250
420
  2301728
370
     9
100
AcDbSpline
210
0.0
220
0.0
230
1.0
 70
    11
 71
     3
 72
    17
 73
    13
 74
     0
 42
0.0000000001
 43
0.0000000001
 12
1.0
 22
0.0
 32
0.0
 13
1.0
 23
0.0
 33
0.0
 40
0.0
 40
0.0
 40
0.0
 40
0.0
 40
1.0
 40
1.0
 40
1.0
 40
2.0
 40
2.0
 40
2.0
 40
3.0
 40
3.0
 40
3.0
 40
4.0
 40
4.0
 40
4.0
 40
4.0
 10
14.3436120779196
 20
-18.44149862254708
 30
0.0
 10
14.3436120779196
 20
-18.35175235072699
 30
0.0
 10
14.4163658060589
 20
-18.27899862258768
 30
0.0
 10
14.50611207787899
 20
-18.27899862258768
 30
0.0
 10
14.59585834969908
 20
-18.27899862258768
 30
0.0
 10
14.66861207783839
 20
-18.35175235072699
 30
0.0
 10
14.66861207783839
 20
-18.44149862254708
 30
0.0
 10
14.66861207783839
 20
-18.53124489436717
 30
0.0
 10
14.59585834969908
 20
-18.60399862250647
 30
0.0
 10
14.50611207787899
 20
-18.60399862250647
 30
0.0
 10
14.4163658060589
 20
-18.60399862250647
 30
0.0
 10
14.3436120779196
 20
-18.53124489436717
 30
0.0
 10
14.3436120779196
 20
-18.44149862254708
 30
0.0
  0
SPLINE
  5
7B
330
1F
100
AcDbEntity
  8
Layer 1
 62
   250
420
  2301728
370
     9
100
AcDbSpline
210
0.0
220
0.0
230
1.0
 70
    11
 71
     3
 72
    17
 73
    13
 74
     0
 42
0.0000000001
 43
0.0000000001
 12
1.0
 22
0.0
 32
0.0
 13
1.0
 23
0.0
 33
0.0
 40
0.0
 40
0.0
 40
0.0
 40
0.0
 40
1.0
 40
1.0
 40
1.0
 40
2.0
 40
2.0
 40
2.0
 40
3.0
 40
3.0
 40
3.0
 40
4.0
 40
4.0
 40
4.0
 40
4.0
 10
1.341557746615902
 20
-18.44149862254708
 30
0.0
 10
1.341557746615902
 20
-18.35175235072699
 30
0.0
 10
1.414311474755206
 20
-18.27899862258768
 30
0.0
 10
1.504057746575296
 20
-18.27899862258768
 30
0.0
 10
1.593804018395385
 20
-18.27899862258768
 30
0.0
 10
1.66655774653469
 20
-18.35175235072699
 30
0.0
 10
1.66655774653469
 20
-18.44149862254708
 30
0.0
 10
1.66655774653469
 20
-18.53124489436717
 30
0.0
 10
1.593804018395385
 20
-18.60399862250647
 30
0.0
 10
1.504057746575296
 20
-18.60399862250647
 30
0.0
 10
1.414311474755206
 20
-18.60399862250647
 30
0.0
 10
1.341557746615902
 20
-18.53124489436717
 30
0.0
 10
1.341557746615902
 20
-18.44149862254708
 30
0.0
  0
SPLINE
  5
7C
330
1F
100
AcDbEntity
  8
Layer 1
 62
   250
420
  2301728
370
     9
100
AcDbSpline
210
0.0
220
0.0
230
1.0
 70
    11
 71
     3
 72
    17
 73
    13
 74
     0
 42
0.0000000001
 43
0.0000000001
 12
1.0
 22
0.0
 32
0.0
 13
1.0
 23
0.0
 33
0.0
 40
0.0
 40
0.0
 40
0.0
 40
0.0
 40
1.0
 40
1.0
 40
1.0
 40
2.0
 40
2.0
 40
2.0
 40
3.0
 40
3.0
 40
3.0
 40
4.0
 40
4.0
 40
4.0
 40
4.0
 10
14.3436120779196
 20
-24.21149862096925
 30
0.0
 10
14.3436120779196
 20
-24.12175234914916
 30
0.0
 10
14.4163658060589
 20
-24.04899862100985
 30
0.0
 10
14.50611207787899
 20
-24.04899862100985
 30
0.0
 10
14.59585834969908
 20
-24.04899862100985
 30
0.0
 10
14.66861207783839
 20
-24.12175234914916
 30
0.0
 10
14.66861207783839
 20
-24.21149862096925
 30
0.0
 10
14.66861207783839
 20
-24.30124489278921
 30
0.0
 10
14.59585834969908
 20
-24.37399862092851
 30
0.0
 10
14.50611207787899
 20
-24.37399862092851
 30
0.0
 10
14.4163658060589
 20
-24.37399862092851
 30
0.0
 10
14.3436120779196
 20
-24.30124489278921
 30
0.0
 10
14.3436120779196
 20
-24.21149862096925
 30
0.0
  0
SPLINE
  5
7D
330
1F
100
AcDbEntity
  8
Layer 1
 62
   250
420
  2301728
370
     9
100
AcDbSpline
210
0.0
220
0.0
230
1.0
 70
    11
 71
     3
 72
    17
 73
    13
 74
     0
 42
0.0000000001
 43
0.0000000001
 12
1.0
 22
0.0
 32
0.0
 13
1.0
 23
0.0
 33
0.0
 40
0.0
 40
0.0
 40
0.0
 40
0.0
 40
1.0
 40
1.0
 40
1.0
 40
2.0
 40
2.0
 40
2.0
 40
3.0
 40
3.0
 40
3.0
 40
4.0
 40
4.0
 40
4.0
 40
4.0
 10
1.341557746615902
 20
-24.21149862096925
 30
0.0
 10
1.341557746615902
 20
-24.12175234914916
 30
0.0
 10
1.414311474755206
 20
-24.04899862100985
 30
0.0
 10
1.504057746575296
 20
-24.04899862100985
 30
0.0
 10
1.593804018395385
 20
-24.04899862100985
 30
0.0
 10
1.66655774653469
 20
-24.12175234914916
 30
0.0
 10
1.66655774653469
 20
-24.21149862096925
 30
0.0
 10
1.66655774653469
 20
-24.30124489278921
 30
0.0
 10
1.593804018395385
 20
-24.37399862092851
 30
0.0
 10
1.504057746575296
 20
-24.37399862092851
 30
0.0
 10
1.414311474755206
 20
-24.37399862092851
 30
0.0
 10
1.341557746615902
 20
-24.30124489278921
 30
0.0
 10
1.341557746615902
 20
-24.21149862096925
 30
0.0
  0
SPLINE
  5
7E
330
1F
100
AcDbEntity
  8
Layer 1
 62
   250
420
  2301728
370
     9
100
AcDbSpline
210
0.0
220
0.0
230
1.0
 70
    11
 71
     3
 72
    29
 73
    25
 74
     0
 42
0.0000000001
 43
0.0000000001
 12
1.0
 22
0.0
 32
0.0
 13
1.0
 23
0.0
 33
0.0
 40
0.0
 40
0.0
 40
0.0
 40
0.0
 40
1.0
 40
1.0
 40
1.0
 40
2.0
 40
2.0
 40
2.0
 40
3.0
 40
3.0
 40
3.0
 40
4.0
 40
4.0
 40
4.0
 40
5.0
 40
5.0
 40
5.0
 40
6.0
 40
6.0
 40
6.0
 40
7.0
 40
7.0
 40
7.0
 40
8.0
 40
8.0
 40
8.0
 40
8.0
 10
4.627071491739418
 20
-18.60399862258386
 30
0.0
 10
4.627071491739418
 20
-18.60399862258386
 30
0.0
 10
2.952071167317003
 20
-18.60399862257873
 30
0.0
 10
2.952071167317003
 20
-18.60399862257873
 30
0.0
 10
2.862324985299229
 20
-18.60399862257847
 30
0.0
 10
2.78957132996652
 20
-18.53124496725045
 30
0.0
 10
2.78957132996036
 20
-18.44149878523267
 30
0.0
 10
2.78957132996036
 20
-18.44149878523267
 30
0.0
 10
2.789571329931932
 20
-18.02649846045025
 30
0.0
 10
2.789571329931932
 20
-18.02649846045025
 30
0.0
 10
2.789571329925772
 20
-17.93675227828629
 30
0.0
 10
2.862324985381495
 20
-17.86399862283763
 30
0.0
 10
2.952071167545416
 20
-17.86399862285232
 30
0.0
 10
2.952071167545416
 20
-17.86399862285232
 30
0.0
 10
4.627071492098288
 20
-17.86399862312755
 30
0.0
 10
4.627071492098288
 20
-17.86399862312755
 30
0.0
 10
4.716817674083272
 20
-17.86399862314224
 30
0.0
 10
4.789571329379339
 20
-17.93675227845211
 30
0.0
 10
4.789571329377093
 20
-18.02649846043709
 30
0.0
 10
4.789571329377093
 20
-18.02649846043709
 30
0.0
 10
4.789571329366666
 20
-18.44149878496123
 30
0.0
 10
4.789571329366666
 20
-18.44149878496123
 30
0.0
 10
4.78957132936442
 20
-18.53124496713109
 30
0.0
 10
4.716817673909275
 20
-18.60399862258425
 30
0.0
 10
4.627071491739418
 20
-18.60399862258386
 30
0.0
  0
SPLINE
  5
7F
330
1F
100
AcDbEntity
  8
Layer 1
 62
   250
420
  2301728
370
     9
100
AcDbSpline
210
0.0
220
0.0
230
1.0
 70
    11
 71
     3
 72
    29
 73
    25
 74
     0
 42
0.0000000001
 43
0.0000000001
 12
1.0
 22
0.0
 32
0.0
 13
1.0
 23
0.0
 33
0.0
 40
0.0
 40
0.0
 40
0.0
 40
0.0
 40
1.0
 40
1.0
 40
1.0
 40
2.0
 40
2.0
 40
2.0
 40
3.0
 40
3.0
 40
3.0
 40
4.0
 40
4.0
 40
4.0
 40
5.0
 40
5.0
 40
5.0
 40
6.0
 40
6.0
 40
6.0
 40
7.0
 40
7.0
 40
7.0
 40
8.0
 40
8.0
 40
8.0
 40
8.0
 10
11.38309833294213
 20
-18.60399862252213
 30
0.0
 10
11.38309833294213
 20
-18.60399862252213
 30
0.0
 10
13.05809865731411
 20
-18.60399862250018
 30
0.0
 10
13.05809865731411
 20
-18.60399862250018
 30
0.0
 10
13.14784483913206
 20
-18.60399862249903
 30
0.0
 10
13.22059849430877
 20
-18.53124496734542
 30
0.0
 10
13.22059849433867
 20
-18.4414987855276
 30
0.0
 10
13.22059849433867
 20
-18.4414987855276
 30
0.0
 10
13.22059849447651
 20
-18.02649846010886
 30
0.0
 10
13.22059849447651
 20
-18.02649846010886
 30
0.0
 10
13.22059849450641
 20
-17.93675227815988
 30
0.0
 10
13.14784483923023
 20
-17.8639986228735
 30
0.0
 10
13.05809865728112
 20
-17.86399862289089
 30
0.0
 10
13.05809865728112
 20
-17.86399862289089
 30
0.0
 10
11.38309833193287
 20
-17.86399862321482
 30
0.0
 10
11.38309833193287
 20
-17.86399862321482
 30
0.0
 10
11.29335215007898
 20
-17.86399862323214
 30
0.0
 10
11.22059849489765
 20
-17.93675227845005
 30
0.0
 10
11.22059849492537
 20
-18.02649846030407
 30
0.0
 10
11.22059849492537
 20
-18.02649846030407
 30
0.0
 10
11.22059849505397
 20
-18.44149878468633
 30
0.0
 10
11.22059849505397
 20
-18.44149878468633
 30
0.0
 10
11.22059849508169
 20
-18.53124496698202
 30
0.0
 10
11.2933521506465
 20
-18.60399862252329
 30
0.0
 10
11.38309833294213
 20
-18.60399862252213
 30
0.0
  0
SPLINE
  5
80
330
1F
100
AcDbEntity
  8
Layer 1
 62
   250
420
  2301728
370
     9
100
AcDbSpline
210
0.0
220
0.0
230
1.0
 70
    11
 71
     3
 72
    29
 73
    25
 74
     0
 42
0.0000000001
 43
0.0000000001
 12
1.0
 22
0.0
 32
0.0
 13
1.0
 23
0.0
 33
0.0
 40
0.0
 40
0.0
 40
0.0
 40
0.0
 40
1.0
 40
1.0
 40
1.0
 40
2.0
 40
2.0
 40
2.0
 40
3.0
 40
3.0
 40
3.0
 40
4.0
 40
4.0
 40
4.0
 40
5.0
 40
5.0
 40
5.0
 40
6.0
 40
6.0
 40
6.0
 40
7.0
 40
7.0
 40
7.0
 40
8.0
 40
8.0
 40
8.0
 40
8.0
 10
2.952071167895688
 20
-24.7889986206411
 30
0.0
 10
2.952071167895688
 20
-24.7889986206411
 30
0.0
 10
4.627071492267665
 20
-24.78899862061915
 30
0.0
 10
4.627071492267665
 20
-24.78899862061915
 30
0.0
 10
4.71681767408555
 20
-24.78899862061799
 30
0.0
 10
4.789571329262325
 20
-24.71624496546438
 30
0.0
 10
4.789571329292165
 20
-24.62649878364656
 30
0.0
 10
4.789571329292165
 20
-24.62649878364656
 30
0.0
 10
4.789571329430066
 20
-24.21149845822783
 30
0.0
 10
4.789571329430066
 20
-24.21149845822783
 30
0.0
 10
4.789571329459905
 20
-24.12175227627884
 30
0.0
 10
4.716817674183729
 20
-24.04899862099253
 30
0.0
 10
4.627071492234681
 20
-24.04899862100985
 30
0.0
 10
4.627071492234681
 20
-24.04899862100985
 30
0.0
 10
2.952071166886423
 20
-24.04899862133378
 30
0.0
 10
2.952071166886423
 20
-24.04899862133378
 30
0.0
 10
2.862324985032475
 20
-24.04899862135111
 30
0.0
 10
2.789571329851142
 20
-24.12175227656902
 30
0.0
 10
2.789571329878928
 20
-24.21149845842303
 30
0.0
 10
2.789571329878928
 20
-24.21149845842303
 30
0.0
 10
2.78957133000746
 20
-24.62649878280529
 30
0.0
 10
2.78957133000746
 20
-24.62649878280529
 30
0.0
 10
2.789571330035246
 20
-24.71624496510105
 30
0.0
 10
2.862324985600058
 20
-24.78899862064225
 30
0.0
 10
2.952071167895688
 20
-24.7889986206411
 30
0.0
  0
SPLINE
  5
81
330
1F
100
AcDbEntity
  8
Layer 1
 62
   250
420
  2301728
370
     9
100
AcDbSpline
210
0.0
220
0.0
230
1.0
 70
    11
 71
     3
 72
    29
 73
    25
 74
     0
 42
0.0000000001
 43
0.0000000001
 12
1.0
 22
0.0
 32
0.0
 13
1.0
 23
0.0
 33
0.0
 40
0.0
 40
0.0
 40
0.0
 40
0.0
 40
1.0
 40
1.0
 40
1.0
 40
2.0
 40
2.0
 40
2.0
 40
3.0
 40
3.0
 40
3.0
 40
4.0
 40
4.0
 40
4.0
 40
5.0
 40
5.0
 40
5.0
 40
6.0
 40
6.0
 40
6.0
 40
7.0
 40
7.0
 40
7.0
 40
8.0
 40
8.0
 40
8.0
 40
8.0
 10
15.20502577289122
 20
-33.6758802141799
 30
0.0
 10
15.20502577289122
 20
-33.6758802141799
 30
0.0
 10
0.8041168842862232
 20
-33.6758802141799
 30
0.0
 10
0.8041168842862232
 20
-33.6758802141799
 30
0.0
 10
0.6386824430304424
 20
-33.6758802141799
 30
0.0
 10
0.5045713304637404
 20
-33.54176910161329
 30
0.0
 10
0.5045713304637404
 20
-33.37633466035741
 30
0.0
 10
0.5045713304637404
 20
-33.37633466035741
 30
0.0
 10
0.5045713304637404
 20
-25.9754257700024
 30
0.0
 10
0.5045713304637404
 20
-25.9754257700024
 30
0.0
 10
0.5045713304637404
 20
-25.80999132874665
 30
0.0
 10
0.6386824430304424
 20
-25.67588021617992
 30
0.0
 10
0.8041168842862232
 20
-25.67588021617992
 30
0.0
 10
0.8041168842862232
 20
-25.67588021617992
 30
0.0
 10
15.20502577289122
 20
-25.67588021617992
 30
0.0
 10
15.20502577289122
 20
-25.67588021617992
 30
0.0
 10
15.37046021414696
 20
-25.67588021617992
 30
0.0
 10
15.5045713267137
 20
-25.80999132874665
 30
0.0
 10
15.5045713267137
 20
-25.9754257700024
 30
0.0
 10
15.5045713267137
 20
-25.9754257700024
 30
0.0
 10
15.5045713267137
 20
-33.37633466035741
 30
0.0
 10
15.5045713267137
 20
-33.37633466035741
 30
0.0
 10
15.5045713267137
 20
-33.54176910161329
 30
0.0
 10
15.37046021414696
 20
-33.6758802141799
 30
0.0
 10
15.20502577289122
 20
-33.6758802141799
 30
0.0
  0
SPLINE
  5
82
330
1F
100
AcDbEntity
  8
Layer 1
 62
   250
420
  2301728
370
     9
100
AcDbSpline
210
0.0
220
0.0
230
1.0
 70
    11
 71
     3
 72
    17
 73
    13
 74
     0
 42
0.0000000001
 43
0.0000000001
 12
1.0
 22
0.0
 32
0.0
 13
1.0
 23
0.0
 33
0.0
 40
0.0
 40
0.0
 40
0.0
 40
0.0
 40
1.0
 40
1.0
 40
1.0
 40
2.0
 40
2.0
 40
2.0
 40
3.0
 40
3.0
 40
3.0
 40
4.0
 40
4.0
 40
4.0
 40
4.0
 10
14.3436120779196
 20
-26.79088021590119
 30
0.0
 10
14.3436120779196
 20
-26.70113394408123
 30
0.0
 10
14.4163658060589
 20
-26.62838021594192
 30
0.0
 10
14.50611207787899
 20
-26.62838021594192
 30
0.0
 10
14.59585834969908
 20
-26.62838021594192
 30
0.0
 10
14.66861207783839
 20
-26.70113394408123
 30
0.0
 10
14.66861207783839
 20
-26.79088021590119
 30
0.0
 10
14.66861207783839
 20
-26.88062648772128
 30
0.0
 10
14.59585834969908
 20
-26.95338021586058
 30
0.0
 10
14.50611207787899
 20
-26.95338021586058
 30
0.0
 10
14.4163658060589
 20
-26.95338021586058
 30
0.0
 10
14.3436120779196
 20
-26.88062648772128
 30
0.0
 10
14.3436120779196
 20
-26.79088021590119
 30
0.0
  0
SPLINE
  5
83
330
1F
100
AcDbEntity
  8
Layer 1
 62
   250
420
  2301728
370
     9
100
AcDbSpline
210
0.0
220
0.0
230
1.0
 70
    11
 71
     3
 72
    17
 73
    13
 74
     0
 42
0.0000000001
 43
0.0000000001
 12
1.0
 22
0.0
 32
0.0
 13
1.0
 23
0.0
 33
0.0
 40
0.0
 40
0.0
 40
0.0
 40
0.0
 40
1.0
 40
1.0
 40
1.0
 40
2.0
 40
2.0
 40
2.0
 40
3.0
 40
3.0
 40
3.0
 40
4.0
 40
4.0
 40
4.0
 40
4.0
 10
1.341557746615902
 20
-26.79088021590119
 30
0.0
 10
1.341557746615902
 20
-26.70113394408123
 30
0.0
 10
1.414311474755206
 20
-26.62838021594192
 30
0.0
 10
1.504057746575296
 20
-26.62838021594192
 30
0.0
 10
1.593804018395385
 20
-26.62838021594192
 30
0.0
 10
1.66655774653469
 20
-26.70113394408123
 30
0.0
 10
1.66655774653469
 20
-26.79088021590119
 30
0.0
 10
1.66655774653469
 20
-26.88062648772128
 30
0.0
 10
1.593804018395385
 20
-26.95338021586058
 30
0.0
 10
1.504057746575296
 20
-26.95338021586058
 30
0.0
 10
1.414311474755206
 20
-26.95338021586058
 30
0.0
 10
1.341557746615902
 20
-26.88062648772128
 30
0.0
 10
1.341557746615902
 20
-26.79088021590119
 30
0.0
  0
SPLINE
  5
84
330
1F
100
AcDbEntity
  8
Layer 1
 62
   250
420
  2301728
370
     9
100
AcDbSpline
210
0.0
220
0.0
230
1.0
 70
    11
 71
     3
 72
    17
 73
    13
 74
     0
 42
0.0000000001
 43
0.0000000001
 12
1.0
 22
0.0
 32
0.0
 13
1.0
 23
0.0
 33
0.0
 40
0.0
 40
0.0
 40
0.0
 40
0.0
 40
1.0
 40
1.0
 40
1.0
 40
2.0
 40
2.0
 40
2.0
 40
3.0
 40
3.0
 40
3.0
 40
4.0
 40
4.0
 40
4.0
 40
4.0
 10
14.3436120779196
 20
-32.56088021432335
 30
0.0
 10
14.3436120779196
 20
-32.47113394250326
 30
0.0
 10
14.4163658060589
 20
-32.39838021436396
 30
0.0
 10
14.50611207787899
 20
-32.39838021436396
 30
0.0
 10
14.59585834969908
 20
-32.39838021436396
 30
0.0
 10
14.66861207783839
 20
-32.47113394250326
 30
0.0
 10
14.66861207783839
 20
-32.56088021432335
 30
0.0
 10
14.66861207783839
 20
-32.65062648614344
 30
0.0
 10
14.59585834969908
 20
-32.72338021428275
 30
0.0
 10
14.50611207787899
 20
-32.72338021428275
 30
0.0
 10
14.4163658060589
 20
-32.72338021428275
 30
0.0
 10
14.3436120779196
 20
-32.65062648614344
 30
0.0
 10
14.3436120779196
 20
-32.56088021432335
 30
0.0
  0
SPLINE
  5
85
330
1F
100
AcDbEntity
  8
Layer 1
 62
   250
420
  2301728
370
     9
100
AcDbSpline
210
0.0
220
0.0
230
1.0
 70
    11
 71
     3
 72
    17
 73
    13
 74
     0
 42
0.0000000001
 43
0.0000000001
 12
1.0
 22
0.0
 32
0.0
 13
1.0
 23
0.0
 33
0.0
 40
0.0
 40
0.0
 40
0.0
 40
0.0
 40
1.0
 40
1.0
 40
1.0
 40
2.0
 40
2.0
 40
2.0
 40
3.0
 40
3.0
 40
3.0
 40
4.0
 40
4.0
 40
4.0
 40
4.0
 10
1.341557746615902
 20
-32.56088021432335
 30
0.0
 10
1.341557746615902
 20
-32.47113394250326
 30
0.0
 10
1.414311474755206
 20
-32.39838021436396
 30
0.0
 10
1.504057746575296
 20
-32.39838021436396
 30
0.0
 10
1.593804018395385
 20
-32.39838021436396
 30
0.0
 10
1.66655774653469
 20
-32.47113394250326
 30
0.0
 10
1.66655774653469
 20
-32.56088021432335
 30
0.0
 10
1.66655774653469
 20
-32.65062648614344
 30
0.0
 10
1.593804018395385
 20
-32.72338021428275
 30
0.0
 10
1.504057746575296
 20
-32.72338021428275
 30
0.0
 10
1.414311474755206
 20
-32.72338021428275
 30
0.0
 10
1.341557746615902
 20
-32.65062648614344
 30
0.0
 10
1.341557746615902
 20
-32.56088021432335
 30
0.0
  0
SPLINE
  5
86
330
1F
100
AcDbEntity
  8
Layer 1
 62
   250
420
  2301728
370
     9
100
AcDbSpline
210
0.0
220
0.0
230
1.0
 70
    11
 71
     3
 72
    17
 73
    13
 74
     0
 42
0.0000000001
 43
0.0000000001
 12
1.0
 22
0.0
 32
0.0
 13
1.0
 23
0.0
 33
0.0
 40
0.0
 40
0.0
 40
0.0
 40
0.0
 40
1.0
 40
1.0
 40
1.0
 40
2.0
 40
2.0
 40
2.0
 40
3.0
 40
3.0
 40
3.0
 40
4.0
 40
4.0
 40
4.0
 40
4.0
 10
2.142584913941454
 20
-19.37649862228432
 30
0.0
 10
2.142584913941454
 20
-19.28675235046429
 30
0.0
 10
2.215338642080758
 20
-19.21399862232499
 30
0.0
 10
2.305084913900848
 20
-19.21399862232499
 30
0.0
 10
2.394831185720938
 20
-19.21399862232499
 30
0.0
 10
2.467584913860242
 20
-19.28675235046429
 30
0.0
 10
2.467584913860242
 20
-19.37649862228432
 30
0.0
 10
2.467584913860242
 20
-19.46624489410441
 30
0.0
 10
2.394831185720938
 20
-19.53899862224371
 30
0.0
 10
2.305084913900848
 20
-19.53899862224371
 30
0.0
 10
2.215338642080758
 20
-19.53899862224371
 30
0.0
 10
2.142584913941454
 20
-19.46624489410441
 30
0.0
 10
2.142584913941454
 20
-19.37649862228432
 30
0.0
  0
SPLINE
  5
87
330
1F
100
AcDbEntity
  8
Layer 1
 62
   250
420
  2301728
370
     9
100
AcDbSpline
210
0.0
220
0.0
230
1.0
 70
    11
 71
     3
 72
    17
 73
    13
 74
     0
 42
0.0000000001
 43
0.0000000001
 12
1.0
 22
0.0
 32
0.0
 13
1.0
 23
0.0
 33
0.0
 40
0.0
 40
0.0
 40
0.0
 40
0.0
 40
1.0
 40
1.0
 40
1.0
 40
2.0
 40
2.0
 40
2.0
 40
3.0
 40
3.0
 40
3.0
 40
4.0
 40
4.0
 40
4.0
 40
4.0
 10
2.142584913941454
 20
-23.27649862130939
 30
0.0
 10
2.142584913941454
 20
-23.1867523494893
 30
0.0
 10
2.215338642080758
 20
-23.11399862135
 30
0.0
 10
2.305084913900848
 20
-23.11399862135
 30
0.0
 10
2.394831185720938
 20
-23.11399862135
 30
0.0
 10
2.467584913860242
 20
-23.1867523494893
 30
0.0
 10
2.467584913860242
 20
-23.27649862130939
 30
0.0
 10
2.467584913860242
 20
-23.36624489312948
 30
0.0
 10
2.394831185720938
 20
-23.43899862126879
 30
0.0
 10
2.305084913900848
 20
-23.43899862126879
 30
0.0
 10
2.215338642080758
 20
-23.43899862126879
 30
0.0
 10
2.142584913941454
 20
-23.36624489312948
 30
0.0
 10
2.142584913941454
 20
-23.27649862130939
 30
0.0
  0
SPLINE
  5
88
330
1F
100
AcDbEntity
  8
Layer 1
 62
   250
420
  2301728
370
     9
100
AcDbSpline
210
0.0
220
0.0
230
1.0
 70
    11
 71
     3
 72
    17
 73
    13
 74
     0
 42
0.0000000001
 43
0.0000000001
 12
1.0
 22
0.0
 32
0.0
 13
1.0
 23
0.0
 33
0.0
 40
0.0
 40
0.0
 40
0.0
 40
0.0
 40
1.0
 40
1.0
 40
1.0
 40
2.0
 40
2.0
 40
2.0
 40
3.0
 40
3.0
 40
3.0
 40
4.0
 40
4.0
 40
4.0
 40
4.0
 10
13.54258491109149
 20
-23.27649862130939
 30
0.0
 10
13.54258491109149
 20
-23.1867523494893
 30
0.0
 10
13.6153386392308
 20
-23.11399862135
 30
0.0
 10
13.70508491105089
 20
-23.11399862135
 30
0.0
 10
13.79483118287098
 20
-23.11399862135
 30
0.0
 10
13.86758491101028
 20
-23.1867523494893
 30
0.0
 10
13.86758491101028
 20
-23.27649862130939
 30
0.0
 10
13.86758491101028
 20
-23.36624489312948
 30
0.0
 10
13.79483118287098
 20
-23.43899862126879
 30
0.0
 10
13.70508491105089
 20
-23.43899862126879
 30
0.0
 10
13.6153386392308
 20
-23.43899862126879
 30
0.0
 10
13.54258491109149
 20
-23.36624489312948
 30
0.0
 10
13.54258491109149
 20
-23.27649862130939
 30
0.0
  0
SPLINE
  5
89
330
1F
100
AcDbEntity
  8
Layer 1
 62
   250
420
  2301728
370
     9
100
AcDbSpline
210
0.0
220
0.0
230
1.0
 70
    11
 71
     3
 72
    17
 73
    13
 74
     0
 42
0.0000000001
 43
0.0000000001
 12
1.0
 22
0.0
 32
0.0
 13
1.0
 23
0.0
 33
0.0
 40
0.0
 40
0.0
 40
0.0
 40
0.0
 40
1.0
 40
1.0
 40
1.0
 40
2.0
 40
2.0
 40
2.0
 40
3.0
 40
3.0
 40
3.0
 40
4.0
 40
4.0
 40
4.0
 40
4.0
 10
13.54258491109149
 20
-19.37649862228432
 30
0.0
 10
13.54258491109149
 20
-19.28675235046423
 30
0.0
 10
13.6153386392308
 20
-19.21399862232499
 30
0.0
 10
13.70508491105089
 20
-19.21399862232499
 30
0.0
 10
13.79483118287098
 20
-19.21399862232499
 30
0.0
 10
13.86758491101028
 20
-19.28675235046423
 30
0.0
 10
13.86758491101028
 20
-19.37649862228432
 30
0.0
 10
13.86758491101028
 20
-19.46624489410441
 30
0.0
 10
13.79483118287098
 20
-19.53899862224371
 30
0.0
 10
13.70508491105089
 20
-19.53899862224371
 30
0.0
 10
13.6153386392308
 20
-19.53899862224371
 30
0.0
 10
13.54258491109149
 20
-19.46624489410441
 30
0.0
 10
13.54258491109149
 20
-19.37649862228432
 30
0.0
  0
SPLINE
  5
8A
330
1F
100
AcDbEntity
  8
Layer 1
 62
   250
420
  2301728
370
     9
100
AcDbSpline
210
0.0
220
0.0
230
1.0
 70
    11
 71
     3
 72
    29
 73
    25
 74
     0
 42
0.0000000001
 43
0.0000000001
 12
1.0
 22
0.0
 32
0.0
 13
1.0
 23
0.0
 33
0.0
 40
0.0
 40
0.0
 40
0.0
 40
0.0
 40
1.0
 40
1.0
 40
1.0
 40
2.0
 40
2.0
 40
2.0
 40
3.0
 40
3.0
 40
3.0
 40
4.0
 40
4.0
 40
4.0
 40
5.0
 40
5.0
 40
5.0
 40
6.0
 40
6.0
 40
6.0
 40
7.0
 40
7.0
 40
7.0
 40
8.0
 40
8.0
 40
8.0
 40
8.0
 10
10.32758475015552
 20
-24.78881260545166
 30
0.0
 10
10.32758475015552
 20
-24.78881260545166
 30
0.0
 10
10.74258507455062
 20
-24.78881260543703
 30
0.0
 10
10.74258507455062
 20
-24.78881260543703
 30
0.0
 10
10.83233125638025
 20
-24.78881260543383
 30
0.0
 10
10.90508491145634
 20
-24.71605895026007
 30
0.0
 10
10.90508491146738
 20
-24.62631276843044
 30
0.0
 10
10.90508491146738
 20
-24.62631276843044
 30
0.0
 10
10.90508491151846
 20
-24.21131244312682
 30
0.0
 10
10.90508491151846
 20
-24.21131244312682
 30
0.0
 10
10.9050849115295
 20
-24.12156626117027
 30
0.0
 10
10.83233125622611
 20
-24.04881260583069
 30
0.0
 10
10.74258507426956
 20
-24.04881260587753
 30
0.0
 10
10.74258507426956
 20
-24.04881260587753
 30
0.0
 10
10.32758474918386
 20
-24.04881260609443
 30
0.0
 10
10.32758474918386
 20
-24.04881260609443
 30
0.0
 10
10.23783856736322
 20
-24.0488126061414
 30
0.0
 10
10.16508491220588
 20
-24.12156626133133
 30
0.0
 10
10.16508491221615
 20
-24.21131244315198
 30
0.0
 10
10.16508491221615
 20
-24.21131244315198
 30
0.0
 10
10.16508491226377
 20
-24.62631276755939
 30
0.0
 10
10.16508491226377
 20
-24.62631276755939
 30
0.0
 10
10.16508491227403
 20
-24.71605894986888
 30
0.0
 10
10.23783856784616
 20
-24.78881260545487
 30
0.0
 10
10.32758475015552
 20
-24.78881260545166
 30
0.0
  0
SPLINE
  5
8B
330
1F
100
AcDbEntity
  8
Layer 1
 62
   250
420
  2301728
370
     9
100
AcDbSpline
210
0.0
220
0.0
230
1.0
 70
    11
 71
     3
 72
    29
 73
    25
 74
     0
 42
0.0000000001
 43
0.0000000001
 12
1.0
 22
0.0
 32
0.0
 13
1.0
 23
0.0
 33
0.0
 40
0.0
 40
0.0
 40
0.0
 40
0.0
 40
1.0
 40
1.0
 40
1.0
 40
2.0
 40
2.0
 40
2.0
 40
3.0
 40
3.0
 40
3.0
 40
4.0
 40
4.0
 40
4.0
 40
5.0
 40
5.0
 40
5.0
 40
6.0
 40
6.0
 40
6.0
 40
7.0
 40
7.0
 40
7.0
 40
8.0
 40
8.0
 40
8.0
 40
8.0
 10
8.267584750390247
 20
-24.78881260545166
 30
0.0
 10
8.267584750390247
 20
-24.78881260545166
 30
0.0
 10
8.682585074785345
 20
-24.78881260543703
 30
0.0
 10
8.682585074785345
 20
-24.78881260543703
 30
0.0
 10
8.772331256614972
 20
-24.78881260543383
 30
0.0
 10
8.845084911691067
 20
-24.71605895026007
 30
0.0
 10
8.845084911702104
 20
-24.62631276843044
 30
0.0
 10
8.845084911702104
 20
-24.62631276843044
 30
0.0
 10
8.845084911753055
 20
-24.21131244312682
 30
0.0
 10
8.845084911753055
 20
-24.21131244312682
 30
0.0
 10
8.845084911764092
 20
-24.12156626117027
 30
0.0
 10
8.772331256460838
 20
-24.04881260583069
 30
0.0
 10
8.682585074504281
 20
-24.04881260587753
 30
0.0
 10
8.682585074504281
 20
-24.04881260587753
 30
0.0
 10
8.267584749418587
 20
-24.04881260609443
 30
0.0
 10
8.267584749418587
 20
-24.04881260609443
 30
0.0
 10
8.177838567597941
 20
-24.0488126061414
 30
0.0
 10
8.10508491244061
 20
-24.12156626133133
 30
0.0
 10
8.105084912450877
 20
-24.21131244315198
 30
0.0
 10
8.105084912450877
 20
-24.21131244315198
 30
0.0
 10
8.10508491249849
 20
-24.62631276755939
 30
0.0
 10
8.10508491249849
 20
-24.62631276755939
 30
0.0
 10
8.105084912508758
 20
-24.71605894986888
 30
0.0
 10
8.177838568080885
 20
-24.78881260545487
 30
0.0
 10
8.267584750390247
 20
-24.78881260545166
 30
0.0
  0
ENDSEC
  0
SECTION
  2
OBJECTS
  0
DICTIONARY
  5
C
330
0
100
AcDbDictionary
281
     1
  3
ACAD_GROUP
350
D
  3
ACAD_LAYOUT
350
1A
  3
ACAD_MATERIAL
350
3B
  3
ACAD_MLEADERSTYLE
350
8D
  3
ACAD_MLINESTYLE
350
17
  3
ACAD_PLOTSETTINGS
350
19
  3
ACAD_PLOTSTYLENAME
350
E
  3
ACAD_TABLESTYLE
350
8C
  3
ACAD_VISUALSTYLE
350
2A
  0
SUN
  5
3F
330
29
100
AcDbSun
 90
        1
290
     0
 63
     7
421
 16777215
 40
1.0
291
     1
 91
  2455826
 92
 54000000
292
     0
 70
     2
 71
   256
280
     1
  0
DICTIONARY
  5
D
102
{ACAD_REACTORS
330
C
102
}
330
C
100
AcDbDictionary
281
     1
  0
DICTIONARY
  5
1A
102
{ACAD_REACTORS
330
C
102
}
330
C
100
AcDbDictionary
281
     1
  3
Layout1
350
1E
  3
Layout2
350
26
  3
Model
350
22
  0
DICTIONARY
  5
3B
102
{ACAD_REACTORS
330
C
102
}
330
C
100
AcDbDictionary
281
     1
  3
ByBlock
350
3D
  3
ByLayer
350
3C
  3
Global
350
3E
  0
DICTIONARY
  5
8D
102
{ACAD_REACTORS
330
C
102
}
330
C
100
AcDbDictionary
281
     1
  0
DICTIONARY
  5
17
102
{ACAD_REACTORS
330
C
102
}
330
C
100
AcDbDictionary
281
     1
  3
Standard
350
18
  0
DICTIONARY
  5
19
102
{ACAD_REACTORS
330
C
102
}
330
C
100
AcDbDictionary
281
     1
  0
ACDBDICTIONARYWDFLT
  5
E
102
{ACAD_REACTORS
330
C
102
}
330
C
100
AcDbDictionary
281
     1
  3
Normal
350
F
100
AcDbDictionaryWithDefault
340
F
  0
DICTIONARY
  5
8C
102
{ACAD_REACTORS
330
C
102
}
330
C
100
AcDbDictionary
281
     1
  0
DICTIONARY
  5
2A
102
{ACAD_REACTORS
330
C
102
}
330
C
100
AcDbDictionary
281
     1
  3
2dWireframe
350
2F
  3
3D Hidden
350
31
  3
3dWireframe
350
30
  3
Basic
350
32
  3
Brighten
350
36
  3
ColorChange
350
3A
  3
Conceptual
350
34
  3
Dim
350
35
  3
Facepattern
350
39
  3
Flat
350
2B
  3
FlatWithEdges
350
2C
  3
Gouraud
350
2D
  3
GouraudWithEdges
350
2E
  3
Linepattern
350
38
  3
Realistic
350
33
  3
Thicken
350
37
  0
LAYOUT
  5
1E
102
{ACAD_REACTORS
330
1A
102
}
330
1A
100
AcDbPlotSettings
  1

  2
none_device
  4

  6

 40
0.0
 41
0.0
 42
0.0
 43
0.0
 44
0.0
 45
0.0
 46
0.0
 47
0.0
 48
0.0
 49
0.0
140
0.0
141
0.0
142
1.0
143
1.0
 70
   688
 72
     0
 73
     0
 74
     5
  7

 75
    16
 76
     0
 77
     2
 78
   300
147
1.0
148
0.0
149
0.0
100
AcDbLayout
  1
Layout1
 70
     1
 71
     1
 10
0.0
 20
0.0
 11
12.0
 21
9.0
 12
0.0
 22
0.0
 32
0.0
 14
1.000000000000000E+20
 24
1.000000000000000E+20
 34
1.000000000000000E+20
 15
-1.000000000000000E+20
 25
-1.000000000000000E+20
 35
-1.000000000000000E+20
146
0.0
 13
0.0
 23
0.0
 33
0.0
 16
1.0
 26
0.0
 36
0.0
 17
0.0
 27
1.0
 37
0.0
 76
     0
330
1B
  0
LAYOUT
  5
26
102
{ACAD_REACTORS
330
1A
102
}
330
1A
100
AcDbPlotSettings
  1

  2
none_device
  4

  6

 40
0.0
 41
0.0
 42
0.0
 43
0.0
 44
0.0
 45
0.0
 46
0.0
 47
0.0
 48
0.0
 49
0.0
140
0.0
141
0.0
142
1.0
143
1.0
 70
   688
 72
     0
 73
     0
 74
     5
  7

 75
    16
 76
     0
 77
     2
 78
   300
147
1.0
148
0.0
149
0.0
100
AcDbLayout
  1
Layout2
 70
     1
 71
     2
 10
0.0
 20
0.0
 11
0.0
 21
0.0
 12
0.0
 22
0.0
 32
0.0
 14
0.0
 24
0.0
 34
0.0
 15
0.0
 25
0.0
 35
0.0
146
0.0
 13
0.0
 23
0.0
 33
0.0
 16
1.0
 26
0.0
 36
0.0
 17
0.0
 27
1.0
 37
0.0
 76
     0
330
23
  0
LAYOUT
  5
22
102
{ACAD_REACTORS
330
1A
102
}
330
1A
100
AcDbPlotSettings
  1

  2
none_device
  4

  6

 40
0.0
 41
0.0
 42
0.0
 43
0.0
 44
0.0
 45
0.0
 46
0.0
 47
0.0
 48
0.0
 49
0.0
140
0.0
141
0.0
142
1.0
143
1.0
 70
  1712
 72
     0
 73
     0
 74
     0
  7

 75
     0
 76
     0
 77
     2
 78
   300
147
1.0
148
0.0
149
0.0
100
AcDbLayout
  1
Model
 70
     1
 71
     0
 10
0.0
 20
0.0
 11
12.0
 21
9.0
 12
0.0
 22
0.0
 32
0.0
 14
1.000000000000000E+20
 24
1.000000000000000E+20
 34
1.000000000000000E+20
 15
-1.000000000000000E+20
 25
-1.000000000000000E+20
 35
-1.000000000000000E+20
146
0.0
 13
0.0
 23
0.0
 33
0.0
 16
1.0
 26
0.0
 36
0.0
 17
0.0
 27
1.0
 37
0.0
 76
     0
330
1F
331
29
  0
MATERIAL
  5
3D
102
{ACAD_REACTORS
330
3B
102
}
330
3B
100
AcDbMaterial
  1
ByBlock
 72
     1
 94
      127
  0
MATERIAL
  5
3C
102
{ACAD_REACTORS
330
3B
102
}
330
3B
100
AcDbMaterial
  1
ByLayer
 72
     1
 94
      127
  0
MATERIAL
  5
3E
102
{ACAD_REACTORS
330
3B
102
}
330
3B
100
AcDbMaterial
  1
Global
 72
     1
 94
      127
  0
MLINESTYLE
  5
18
102
{ACAD_REACTORS
330
17
102
}
330
17
100
AcDbMlineStyle
  2
Standard
 70
     0
  3

 62
   256
 51
90.0
 52
90.0
 71
     2
 49
0.5
 62
   256
  6
BYLAYER
 49
-0.5
 62
   256
  6
BYLAYER
  0
ACDBPLACEHOLDER
  5
F
102
{ACAD_REACTORS
330
E
102
}
330
E
  0
VISUALSTYLE
  5
2F
102
{ACAD_REACTORS
330
2A
102
}
330
2A
100
AcDbVisualStyle
  2
2dWireframe
 70
     4
177
     2
291
     0
 71
     0
176
     1
 72
     2
176
     1
 73
     0
176
     1
 90
        0
176
     1
 40
-0.6
176
     1
 41
-30.0
176
     1
 62
     5
 63
     7
421
 16777215
176
     1
 74
     1
176
     1
 91
        4
176
     1
 64
     7
176
     1
 65
   257
176
     1
 75
     1
176
     1
175
     1
176
     1
 42
1.0
176
     1
 92
        0
176
     1
 66
   257
176
     1
 43
1.0
176
     1
 76
     1
176
     1
 77
     6
176
     1
 78
     2
176
     1
 67
     7
176
     1
 79
     5
176
     1
170
     0
176
     1
171
     0
176
     1
290
     0
176
     1
 93
        1
176
     1
 44
0.0
176
     1
173
     0
176
     1
  0
VISUALSTYLE
  5
31
102
{ACAD_REACTORS
330
2A
102
}
330
2A
100
AcDbVisualStyle
  2
3D Hidden
 70
     6
177
     2
291
     0
 71
     1
176
     1
 72
     2
176
     1
 73
     2
176
     1
 90
        0
176
     1
 40
-0.6
176
     1
 41
-30.0
176
     1
 62
     5
 63
     7
421
 16777215
176
     1
 74
     2
176
     1
 91
        2
176
     1
 64
     7
176
     1
 65
   257
176
     1
 75
     2
176
     1
175
     1
176
     1
 42
40.0
176
     1
 92
        0
176
     1
 66
   257
176
     1
 43
1.0
176
     1
 76
     1
176
     1
 77
     6
176
     1
 78
     2
176
     1
 67
     7
176
     1
 79
     3
176
     1
170
     0
176
     1
171
     0
176
     1
290
     0
176
     1
 93
        1
176
     1
 44
0.0
176
     1
173
     0
176
     1
  0
VISUALSTYLE
  5
30
102
{ACAD_REACTORS
330
2A
102
}
330
2A
100
AcDbVisualStyle
  2
3dWireframe
 70
     5
177
     2
291
     0
 71
     0
176
     1
 72
     2
176
     1
 73
     0
176
     1
 90
        0
176
     1
 40
-0.6
176
     1
 41
-30.0
176
     1
 62
     5
 63
     7
421
 16777215
176
     1
 74
     1
176
     1
 91
        4
176
     1
 64
     7
176
     1
 65
   257
176
     1
 75
     1
176
     1
175
     1
176
     1
 42
1.0
176
     1
 92
        0
176
     1
 66
   257
176
     1
 43
1.0
176
     1
 76
     1
176
     1
 77
     6
176
     1
 78
     2
176
     1
 67
     7
176
     1
 79
     5
176
     1
170
     0
176
     1
171
     0
176
     1
290
     0
176
     1
 93
        1
176
     1
 44
0.0
176
     1
173
     0
176
     1
  0
VISUALSTYLE
  5
32
102
{ACAD_REACTORS
330
2A
102
}
330
2A
100
AcDbVisualStyle
  2
Basic
 70
     7
177
     2
291
     1
 71
     1
176
     1
 72
     0
176
     1
 73
     1
176
     1
 90
        0
176
     1
 40
-0.6
176
     1
 41
-30.0
176
     1
 62
     5
 63
     7
421
 16777215
176
     1
 74
     0
176
     1
 91
        4
176
     1
 64
     7
176
     1
 65
   257
176
     1
 75
     1
176
     1
175
     1
176
     1
 42
1.0
176
     1
 92
        8
176
     1
 66
     7
176
     1
 43
1.0
176
     1
 76
     1
176
     1
 77
     6
176
     1
 78
     2
176
     1
 67
     7
176
     1
 79
     5
176
     1
170
     0
176
     1
171
     0
176
     1
290
     0
176
     1
 93
        1
176
     1
 44
0.0
176
     1
173
     0
176
     1
  0
VISUALSTYLE
  5
36
102
{ACAD_REACTORS
330
2A
102
}
330
2A
100
AcDbVisualStyle
  2
Brighten
 70
    12
177
     2
291
     1
 71
     2
176
     1
 72
     2
176
     1
 73
     0
176
     1
 90
        0
176
     1
 40
-0.6
176
     1
 41
-30.0
176
     1
 62
     5
 63
     7
421
 16777215
176
     1
 74
     1
176
     1
 91
        4
176
     1
 64
     7
176
     1
 65
   257
176
     1
 75
     1
176
     1
175
     1
176
     1
 42
1.0
176
     1
 92
        8
176
     1
 66
     7
176
     1
 43
1.0
176
     1
 76
     1
176
     1
 77
     6
176
     1
 78
     2
176
     1
 67
     7
176
     1
 79
     5
176
     1
170
     0
176
     1
171
     0
176
     1
290
     0
176
     1
 93
        1
176
     1
 44
50.0
176
     1
173
     0
176
     1
  0
VISUALSTYLE
  5
3A
102
{ACAD_REACTORS
330
2A
102
}
330
2A
100
AcDbVisualStyle
  2
ColorChange
 70
    16
177
     2
291
     1
 71
     2
176
     1
 72
     2
176
     1
 73
     3
176
     1
 90
        0
176
     1
 40
-0.6
176
     1
 41
-30.0
176
     1
 62
     5
 63
     8
421
  8421504
176
     1
 74
     1
176
     1
 91
        4
176
     1
 64
     7
176
     1
 65
   257
176
     1
 75
     1
176
     1
175
     1
176
     1
 42
1.0
176
     1
 92
        8
176
     1
 66
     8
424
  8421504
176
     1
 43
1.0
176
     1
 76
     1
176
     1
 77
     6
176
     1
 78
     2
176
     1
 67
     7
176
     1
 79
     5
176
     1
170
     0
176
     1
171
     0
176
     1
290
     0
176
     1
 93
        1
176
     1
 44
0.0
176
     1
173
     0
176
     1
  0
VISUALSTYLE
  5
34
102
{ACAD_REACTORS
330
2A
102
}
330
2A
100
AcDbVisualStyle
  2
Conceptual
 70
     9
177
     2
291
     0
 71
     3
176
     1
 72
     2
176
     1
 73
     0
176
     1
 90
        0
176
     1
 40
-0.6
176
     1
 41
-30.0
176
     1
 62
     5
 63
     7
421
 16777215
176
     1
 74
     2
176
     1
 91
        2
176
     1
 64
     7
176
     1
 65
   257
176
     1
 75
     1
176
     1
175
     1
176
     1
 42
40.0
176
     1
 92
        8
176
     1
 66
     7
176
     1
 43
1.0
176
     1
 76
     1
176
     1
 77
     6
176
     1
 78
     2
176
     1
 67
     7
176
     1
 79
     3
176
     1
170
     0
176
     1
171
     0
176
     1
290
     0
176
     1
 93
        1
176
     1
 44
0.0
176
     1
173
     0
176
     1
  0
VISUALSTYLE
  5
35
102
{ACAD_REACTORS
330
2A
102
}
330
2A
100
AcDbVisualStyle
  2
Dim
 70
    11
177
     2
291
     1
 71
     2
176
     1
 72
     2
176
     1
 73
     0
176
     1
 90
        0
176
     1
 40
-0.6
176
     1
 41
-30.0
176
     1
 62
     5
 63
     7
421
 16777215
176
     1
 74
     1
176
     1
 91
        4
176
     1
 64
     7
176
     1
 65
   257
176
     1
 75
     1
176
     1
175
     1
176
     1
 42
1.0
176
     1
 92
        8
176
     1
 66
     7
176
     1
 43
1.0
176
     1
 76
     1
176
     1
 77
     6
176
     1
 78
     2
176
     1
 67
     7
176
     1
 79
     5
176
     1
170
     0
176
     1
171
     0
176
     1
290
     0
176
     1
 93
        1
176
     1
 44
-50.0
176
     1
173
     0
176
     1
  0
VISUALSTYLE
  5
39
102
{ACAD_REACTORS
330
2A
102
}
330
2A
100
AcDbVisualStyle
  2
Facepattern
 70
    15
177
     2
291
     1
 71
     2
176
     1
 72
     2
176
     1
 73
     0
176
     1
 90
        0
176
     1
 40
-0.6
176
     1
 41
-30.0
176
     1
 62
     5
 63
     7
421
 16777215
176
     1
 74
     1
176
     1
 91
        4
176
     1
 64
     7
176
     1
 65
   257
176
     1
 75
     1
176
     1
175
     1
176
     1
 42
1.0
176
     1
 92
        8
176
     1
 66
     7
176
     1
 43
1.0
176
     1
 76
     1
176
     1
 77
     6
176
     1
 78
     2
176
     1
 67
     7
176
     1
 79
     5
176
     1
170
     0
176
     1
171
     0
176
     1
290
     0
176
     1
 93
        1
176
     1
 44
0.0
176
     1
173
     0
176
     1
  0
VISUALSTYLE
  5
2B
102
{ACAD_REACTORS
330
2A
102
}
330
2A
100
AcDbVisualStyle
  2
Flat
 70
     0
177
     2
291
     1
 71
     2
176
     1
 72
     1
176
     1
 73
     1
176
     1
 90
        2
176
     1
 40
-0.6
176
     1
 41
30.0
176
     1
 62
     5
 63
     7
421
 16777215
176
     1
 74
     0
176
     1
 91
        4
176
     1
 64
     7
176
     1
 65
   257
176
     1
 75
     1
176
     1
175
     1
176
     1
 42
1.0
176
     1
 92
        8
176
     1
 66
     7
176
     1
 43
1.0
176
     1
 76
     1
176
     1
 77
     6
176
     1
 78
     2
176
     1
 67
     7
176
     1
 79
     5
176
     1
170
     0
176
     1
171
     0
176
     1
290
     0
176
     1
 93
       13
176
     1
 44
0.0
176
     1
173
     0
176
     1
  0
VISUALSTYLE
  5
2C
102
{ACAD_REACTORS
330
2A
102
}
330
2A
100
AcDbVisualStyle
  2
FlatWithEdges
 70
     1
177
     2
291
     1
 71
     2
176
     1
 72
     1
176
     1
 73
     1
176
     1
 90
        2
176
     1
 40
-0.6
176
     1
 41
30.0
176
     1
 62
     5
 63
     7
421
 16777215
176
     1
 74
     1
176
     1
 91
        4
176
     1
 64
     7
176
     1
 65
   257
176
     1
 75
     1
176
     1
175
     1
176
     1
 42
1.0
176
     1
 92
        0
176
     1
 66
   257
176
     1
 43
1.0
176
     1
 76
     1
176
     1
 77
     6
176
     1
 78
     2
176
     1
 67
     7
176
     1
 79
     5
176
     1
170
     0
176
     1
171
     0
176
     1
290
     0
176
     1
 93
       13
176
     1
 44
0.0
176
     1
173
     0
176
     1
  0
VISUALSTYLE
  5
2D
102
{ACAD_REACTORS
330
2A
102
}
330
2A
100
AcDbVisualStyle
  2
Gouraud
 70
     2
177
     2
291
     1
 71
     2
176
     1
 72
     2
176
     1
 73
     1
176
     1
 90
        2
176
     1
 40
-0.6
176
     1
 41
30.0
176
     1
 62
     5
 63
     7
421
 16777215
176
     1
 74
     0
176
     1
 91
        4
176
     1
 64
     7
176
     1
 65
   257
176
     1
 75
     1
176
     1
175
     1
176
     1
 42
1.0
176
     1
 92
        0
176
     1
 66
     7
176
     1
 43
1.0
176
     1
 76
     1
176
     1
 77
     6
176
     1
 78
     2
176
     1
 67
     7
176
     1
 79
     5
176
     1
170
     0
176
     1
171
     0
176
     1
290
     0
176
     1
 93
       13
176
     1
 44
0.0
176
     1
173
     0
176
     1
  0
VISUALSTYLE
  5
2E
102
{ACAD_REACTORS
330
2A
102
}
330
2A
100
AcDbVisualStyle
  2
GouraudWithEdges
 70
     3
177
     2
291
     1
 71
     2
176
     1
 72
     2
176
     1
 73
     1
176
     1
 90
        2
176
     1
 40
-0.6
176
     1
 41
30.0
176
     1
 62
     5
 63
     7
421
 16777215
176
     1
 74
     1
176
     1
 91
        4
176
     1
 64
     7
176
     1
 65
   257
176
     1
 75
     1
176
     1
175
     1
176
     1
 42
1.0
176
     1
 92
        0
176
     1
 66
   257
176
     1
 43
1.0
176
     1
 76
     1
176
     1
 77
     6
176
     1
 78
     2
176
     1
 67
     7
176
     1
 79
     5
176
     1
170
     0
176
     1
171
     0
176
     1
290
     0
176
     1
 93
       13
176
     1
 44
0.0
176
     1
173
     0
176
     1
  0
VISUALSTYLE
  5
38
102
{ACAD_REACTORS
330
2A
102
}
330
2A
100
AcDbVisualStyle
  2
Linepattern
 70
    14
177
     2
291
     1
 71
     2
176
     1
 72
     2
176
     1
 73
     0
176
     1
 90
        0
176
     1
 40
-0.6
176
     1
 41
-30.0
176
     1
 62
     5
 63
     7
421
 16777215
176
     1
 74
     1
176
     1
 91
        4
176
     1
 64
     7
176
     1
 65
   257
176
     1
 75
     7
176
     1
175
     7
176
     1
 42
1.0
176
     1
 92
        8
176
     1
 66
     7
176
     1
 43
1.0
176
     1
 76
     1
176
     1
 77
     6
176
     1
 78
     2
176
     1
 67
     7
176
     1
 79
     5
176
     1
170
     0
176
     1
171
     0
176
     1
290
     0
176
     1
 93
        1
176
     1
 44
0.0
176
     1
173
     0
176
     1
  0
VISUALSTYLE
  5
33
102
{ACAD_REACTORS
330
2A
102
}
330
2A
100
AcDbVisualStyle
  2
Realistic
 70
     8
177
     2
291
     0
 71
     2
176
     1
 72
     2
176
     1
 73
     0
176
     1
 90
        0
176
     1
 40
-0.6
176
     1
 41
-30.0
176
     1
 62
     5
 63
     7
421
 16777215
176
     1
 74
     1
176
     1
 91
        0
176
     1
 64
     7
176
     1
 65
   257
176
     1
 75
     1
176
     1
175
     1
176
     1
 42
1.0
176
     1
 92
        8
176
     1
 66
     8
424
  7895160
176
     1
 43
1.0
176
     1
 76
     1
176
     1
 77
     6
176
     1
 78
     2
176
     1
 67
     7
176
     1
 79
     5
176
     1
170
     0
176
     1
171
     0
176
     1
290
     0
176
     1
 93
       13
176
     1
 44
0.0
176
     1
173
     0
176
     1
  0
VISUALSTYLE
  5
37
102
{ACAD_REACTORS
330
2A
102
}
330
2A
100
AcDbVisualStyle
  2
Thicken
 70
    13
177
     2
291
     1
 71
     2
176
     1
 72
     2
176
     1
 73
     0
176
     1
 90
        0
176
     1
 40
-0.6
176
     1
 41
-30.0
176
     1
 62
     5
 63
     7
421
 16777215
176
     1
 74
     1
176
     1
 91
        4
176
     1
 64
     7
176
     1
 65
   257
176
     1
 75
     1
176
     1
175
     1
176
     1
 42
1.0
176
     1
 92
       12
176
     1
 66
     7
176
     1
 43
1.0
176
     1
 76
     1
176
     1
 77
     6
176
     1
 78
     2
176
     1
 67
     7
176
     1
 79
     5
176
     1
170
     0
176
     1
171
     0
176
     1
290
     0
176
     1
 93
        1
176
     1
 44
0.0
176
     1
173
     0
176
     1
  0
ENDSEC
  0
EOF
